<svg width="48" height="48" viewBox="0 0 48 48" fill="none" xmlns="http://www.w3.org/2000/svg">
<rect width="48" height="48" rx="24" fill="#EF8B5A"/>
<path d="M34.5 24C34.5006 24.2546 34.4353 24.5051 34.3105 24.727C34.1856 24.949 34.0055 25.1348 33.7875 25.2665L20.28 33.5297C20.0523 33.6691 19.7914 33.7452 19.5244 33.7502C19.2575 33.7551 18.994 33.6887 18.7613 33.5578C18.5307 33.4289 18.3387 33.2409 18.2049 33.0132C18.0711 32.7855 18.0004 32.5263 18 32.2622V15.7378C18.0004 15.4737 18.0711 15.2144 18.2049 14.9867C18.3387 14.759 18.5307 14.5711 18.7613 14.4422C18.994 14.3112 19.2575 14.2448 19.5244 14.2498C19.7914 14.2547 20.0523 14.3308 20.28 14.4703L33.7875 22.7334C34.0055 22.8651 34.1856 23.051 34.3105 23.2729C34.4353 23.4949 34.5006 23.7453 34.5 24Z" fill="white"/>
</svg>
