<svg width="328" height="180" viewBox="0 0 328 180" fill="none" xmlns="http://www.w3.org/2000/svg">
<path d="M0 16C0 7.16344 7.16344 0 16 0H312C320.837 0 328 7.16344 328 16V180H0V16Z" fill="#DBFDD6"/>
<path fill-rule="evenodd" clip-rule="evenodd" d="M159.76 132.565C138.542 127.922 110.272 118.706 114.917 87.0866C119.563 55.4669 139.477 43.2752 164.115 43.2752C188.751 43.2752 216.743 61.8626 211.248 100.368C205.753 138.874 180.978 137.209 159.76 132.565ZM229.501 94.45C230.378 85.6516 229.447 76.9462 226.946 68.7855L234.081 64.9636C235.283 64.3197 235.736 62.8232 235.093 61.6209L225.352 43.4353C224.707 42.2331 223.21 41.7806 222.008 42.4246L214.873 46.2464C209.464 39.6443 202.733 34.0458 194.925 29.8999L197.265 22.1557C197.661 20.8503 196.923 19.4722 195.617 19.0775L175.869 13.1063C174.563 12.7117 173.186 13.4499 172.791 14.7553L170.45 22.4995C161.651 21.6236 155.24 24.848 147.079 27.3472L143.257 20.2123C142.613 19.01 141.116 18.5576 139.914 19.2015L121.729 28.9429C120.527 29.5868 120.074 31.0833 120.718 32.2853L124.54 39.4204C117.938 44.8291 110.046 49.2666 105.9 57.0761L98.1555 54.7345C96.8503 54.3398 95.472 55.078 95.0773 56.3833L89.1063 76.1307C88.7117 77.4362 89.4499 78.8142 90.7551 79.2091L98.4995 81.5507C97.6235 90.3488 98.5544 99.0545 101.054 107.215L93.9187 111.037C92.7165 111.681 92.264 113.177 92.9079 114.38L102.649 132.565C103.293 133.767 104.79 134.22 105.992 133.576L113.127 129.754C118.535 136.356 125.267 141.955 133.076 146.101L130.734 153.845C130.34 155.15 131.078 156.528 132.383 156.923L152.131 162.893C153.435 163.289 154.814 162.551 155.21 161.244L157.55 153.501C166.348 154.377 175.054 153.446 183.215 150.947L187.036 158.082C187.681 159.284 189.178 159.736 190.38 159.093L208.566 149.351C209.766 148.707 210.221 147.211 209.576 146.009L205.753 138.874C212.356 133.465 217.954 126.734 222.101 118.924L229.844 121.266C231.15 121.661 232.529 120.923 232.923 119.617L238.893 99.8698C239.289 98.5645 238.551 97.1862 237.245 96.7915L229.501 94.45Z" fill="#BFE9B9"/>
<path fill-rule="evenodd" clip-rule="evenodd" d="M191.293 50.0535L190.605 50.0303L190.586 50.6413C190.553 51.7406 190.568 52.9166 190.585 54.1989C190.596 55.0924 190.608 56.0376 190.605 57.0443L190.491 59.0323C190.494 60.8844 190.507 63.4622 190.53 66.7659L190.605 76.1706C190.1 76.3382 189.72 76.7746 189.644 77.3054C189.227 77.369 188.907 77.7231 188.907 78.1491C188.907 78.4506 189.067 78.7159 189.309 78.8679L189.015 79.579C188.884 79.8948 188.668 80.1649 188.391 80.36C187.176 81.2149 186.46 82.5996 186.477 84.064C186.478 84.1029 186.479 84.1417 186.48 84.1804C186.485 84.3208 186.606 84.429 186.749 84.4252C186.893 84.42 187.004 84.3019 186.999 84.1615C186.998 84.1272 186.997 84.0928 186.996 84.0582C186.981 82.7596 187.845 81.5315 188.923 80.7733C189.28 80.522 189.558 80.1751 189.725 79.77L189.813 79.0029H190.183C190.183 79.0029 190.311 79.6933 190.311 80.2331C190.311 80.7729 190.183 81.842 190.183 81.842H189.757C189.269 81.842 188.873 82.2304 188.873 82.7079C188.873 83.1854 189.269 83.5739 189.757 83.5739H189.818C190.305 83.5739 190.473 83.3245 190.473 82.7079C190.473 82.3852 190.508 82.1543 191.035 82.1543C191.562 82.1543 191.426 82.7079 191.426 82.7079C191.426 83.1854 191.823 83.5739 192.31 83.5739H192.371C192.858 83.5739 193.255 83.1854 193.255 82.7079C193.255 82.2304 192.433 81.8265 191.945 81.8265C191.945 81.8265 191.816 80.8551 191.816 80.36C191.816 79.9428 191.945 79.0897 191.945 79.0897H191.426C191.426 79.0897 191.534 79.8859 191.534 80.3719C191.534 80.8578 191.426 81.8265 191.426 81.8265C191.426 81.8265 191.14 81.8783 191.003 81.8812C190.867 81.8841 190.702 81.842 190.702 81.842C190.702 81.842 190.588 80.8486 190.588 80.3719C190.588 79.8951 190.702 79.0029 190.702 79.0029H191.426H191.945H192.315L192.632 79.7699C192.791 80.1552 193.269 80.4934 193.632 80.7511L193.678 80.7838C194.732 81.5321 195.132 82.7389 195.132 84.012C195.132 85.0873 194.701 86.0952 193.919 86.8501C193.137 87.6048 192.102 88.2412 191.003 88.2254C190.132 88.213 189.241 87.7328 188.544 87.2124C187.87 86.7085 186.996 85.3302 186.851 85.012C186.706 84.6939 186.637 85.196 186.68 85.3302C186.959 86.2174 187.532 87.0185 188.292 87.5861C189.077 88.1731 190.012 88.4907 190.996 88.5048C192.235 88.5223 193.402 88.0635 194.284 87.2124C195.166 86.3612 195.651 85.2246 195.651 84.012C195.651 82.5764 194.942 81.2156 193.754 80.3719C193.464 80.1664 193.243 79.8921 193.113 79.5788L192.819 78.8679C193.061 78.716 193.221 78.4506 193.221 78.1491C193.221 77.7231 192.901 77.369 192.484 77.3055C192.398 76.7069 191.926 76.2285 191.324 76.12L191.29 76.12L190.892 67.3744C190.868 64.0455 191.18 57.3919 191.18 57.3919C191.185 54.8333 191.216 52.59 191.274 50.6623L191.293 50.0535ZM192.31 83.0651C192.109 83.0651 191.945 82.9049 191.945 82.7079V82.1543C191.945 82.1543 192.736 82.3126 192.736 82.7079C192.736 83.0706 192.598 83.0684 192.42 83.0656C192.404 83.0653 192.388 83.0651 192.371 83.0651H192.31ZM189.194 82.708C189.227 83.2054 190.259 83.4223 190.183 82.708V82.1544C190.183 82.1544 189.16 82.2106 189.194 82.708ZM190.173 77.2952C190.269 76.9 190.632 76.6051 191.064 76.6051C191.496 76.6051 191.859 76.9001 191.955 77.2952H190.173ZM192.35 77.8041H192.239H189.889H189.778C189.584 77.8041 189.426 77.9589 189.426 78.1491C189.426 78.3394 189.584 78.4942 189.778 78.4942H192.35C192.544 78.4942 192.702 78.3394 192.702 78.1491C192.702 77.9589 192.544 77.8041 192.35 77.8041ZM196.8 80.0193H197.254C197.382 80.0193 197.486 79.9166 197.486 79.7899C197.486 79.6632 197.382 79.5606 197.254 79.5606H196.8C196.672 79.5606 196.569 79.6632 196.569 79.7899C196.569 79.9166 196.672 80.0193 196.8 80.0193ZM196.44 81.643L196.876 81.8268C197 81.8786 197.059 82.0254 197.01 82.1546C196.961 82.2838 196.821 82.3465 196.698 82.2947L196.261 82.1109C196.138 82.059 196.078 81.9123 196.127 81.7831C196.165 81.6846 196.255 81.6248 196.35 81.6248C196.38 81.6248 196.41 81.6306 196.44 81.643ZM196.05 77.9027L196.459 77.5744C196.574 77.4818 196.603 77.2983 196.523 77.1646C196.474 77.082 196.395 77.0376 196.314 77.0376C196.264 77.0376 196.214 77.0546 196.17 77.09L195.761 77.4183C195.645 77.5109 195.616 77.6944 195.696 77.8282C195.776 77.9619 195.934 77.9953 196.05 77.9027ZM185.098 80.0193H184.644C184.516 80.0193 184.413 79.9166 184.413 79.7899C184.413 79.6632 184.516 79.5606 184.644 79.5606H185.098C185.226 79.5606 185.33 79.6632 185.33 79.7899C185.33 79.9166 185.226 80.0193 185.098 80.0193ZM185.459 81.643L185.022 81.8268C184.899 81.8786 184.839 82.0254 184.889 82.1546C184.938 82.2838 185.078 82.3465 185.201 82.2947L185.638 82.1109C185.761 82.059 185.821 81.9123 185.771 81.7831C185.734 81.6846 185.644 81.6248 185.548 81.6248C185.519 81.6248 185.488 81.6306 185.459 81.643ZM185.849 77.9027L185.44 77.5744C185.324 77.4818 185.295 77.2983 185.375 77.1646C185.425 77.082 185.504 77.0376 185.584 77.0376C185.634 77.0376 185.685 77.0546 185.729 77.09L186.138 77.4183C186.253 77.5109 186.282 77.6944 186.202 77.8281C186.122 77.9618 185.964 77.9953 185.849 77.9027Z" fill="#FFB61D"/>
<path d="M157.411 114.097C159.94 114.763 161.238 116.347 162.335 117.823C163.433 119.299 161.018 118.597 159.686 118.064C158.353 117.532 155.144 115.562 155.144 115.562L144.507 112.344V107.424L147.688 107.238C147.688 107.238 154.878 113.431 157.411 114.097Z" fill="white"/>
<path d="M146.388 78.0615C148.663 86.6725 149.838 94.9118 150.023 102.816C150.023 102.816 152.154 103.082 151.888 104.946C151.622 106.811 146.028 111.871 146.028 111.871L144.09 105.447L143.365 81.7746L146.388 78.0615Z" fill="white"/>
<path fill-rule="evenodd" clip-rule="evenodd" d="M147.164 82.4691L145.858 81.6025C145.775 81.5472 145.664 81.5902 145.634 81.6898L145.179 83.2029C145.141 83.3289 145.254 83.447 145.372 83.4039L147.134 82.7574C147.254 82.7134 147.272 82.5406 147.164 82.4691ZM147.006 82.7191L145.401 83.1835L145.878 81.8073L147.006 82.7191Z" fill="#FFB61D"/>
<path fill-rule="evenodd" clip-rule="evenodd" d="M146.591 93.3636L145.284 92.497C145.201 92.4417 145.091 92.4847 145.061 92.5844L144.605 94.0975C144.567 94.2235 144.681 94.3416 144.798 94.2985L146.56 93.652C146.68 93.6079 146.699 93.4352 146.591 93.3636ZM146.433 93.6136L144.827 94.078L145.305 92.7018L146.433 93.6136Z" fill="#FFB61D"/>
<path fill-rule="evenodd" clip-rule="evenodd" d="M145.904 99.4848L146.001 97.9201C146.007 97.8201 145.915 97.7463 145.814 97.7701L144.276 98.1321C144.147 98.1623 144.102 98.3195 144.198 98.3997L145.639 99.6024C145.737 99.6844 145.896 99.6139 145.904 99.4848ZM145.608 99.4728L144.403 98.3146L145.834 98.0405L145.608 99.4728Z" fill="#FFB61D"/>
<path fill-rule="evenodd" clip-rule="evenodd" d="M148.38 98.33L146.816 98.2327C146.716 98.2265 146.642 98.3188 146.666 98.4201L147.028 99.9583C147.058 100.086 147.215 100.132 147.295 100.036L148.498 98.595C148.58 98.4968 148.509 98.338 148.38 98.33ZM148.368 98.6255L147.21 99.8305L146.936 98.3997L148.368 98.6255Z" fill="#FFB61D"/>
<path fill-rule="evenodd" clip-rule="evenodd" d="M147.172 106.306L145.768 107.004C145.678 107.048 145.661 107.165 145.732 107.241L146.815 108.392C146.905 108.488 147.064 108.449 147.085 108.325L147.406 106.476C147.428 106.35 147.288 106.248 147.172 106.306ZM147.309 106.568L146.909 108.19L145.956 107.088L147.309 106.568Z" fill="#FFB61D"/>
<path fill-rule="evenodd" clip-rule="evenodd" d="M147.86 101.949L146.457 102.647C146.367 102.692 146.349 102.809 146.42 102.885L147.503 104.036C147.593 104.131 147.752 104.092 147.774 103.969L148.095 102.12C148.117 101.994 147.976 101.891 147.86 101.949ZM147.998 102.211L147.597 103.834L146.644 102.732L147.998 102.211Z" fill="#FFB61D"/>
<path d="M138.76 83.24L137.217 87.8998C133.689 98.5716 131.951 103.988 131.899 104.496C131.867 104.812 132.058 105.047 132.353 105.128C132.53 105.176 132.747 105.173 133.016 105.133C133.435 105.071 133.995 104.914 134.672 104.68C135.195 104.5 135.76 104.283 136.332 104.049L136.573 103.949C136.651 103.917 136.727 103.885 136.801 103.854L137.183 103.689L137.292 103.641L137.356 103.54C137.468 103.36 137.629 103.043 137.787 102.608C137.927 102.225 138.038 101.816 138.111 101.383L138.136 101.22C138.159 101.061 138.377 100.693 138.827 100.065L139.14 99.636C139.397 99.2895 139.892 98.6273 139.942 98.5603L140.233 98.1664C140.511 97.7875 140.753 97.449 140.99 97.1077C142.18 95.3954 143.02 93.8967 143.516 92.4545C143.936 91.2311 144.084 90.0975 143.917 89.0555C143.662 87.4647 143.76 85.9448 144.132 84.5183C144.442 83.333 143.463 82.2396 142.053 81.8376C140.596 81.4222 139.207 81.8927 138.76 83.24Z" fill="white"/>
<path d="M141.343 76.3488C142.203 77.2612 142.924 77.957 143.507 78.4361C144.489 79.2432 145.897 80.1083 147.73 81.0312C142.122 82.3298 138.698 82.5866 137.457 81.8014C137.457 81.8014 137.974 79.3697 138.717 78.3279C139.269 77.5522 141.343 76.3488 141.343 76.3488Z" fill="white"/>
<path d="M150.264 64.6264C149.099 69.0517 145.915 73.6716 142.525 72.7794C139.136 71.887 137.259 65.8386 138.424 61.4134C139.59 56.9881 143.282 54.1241 146.672 55.0163C150.062 55.9085 151.429 60.2014 150.264 64.6264Z" fill="white"/>
<path d="M151.039 66.0377C149.721 71.102 146.118 76.3891 142.282 75.3681C138.445 74.3468 136.322 67.4249 137.641 62.3607C138.959 57.2964 143.138 54.0188 146.974 55.0399C150.811 56.0609 152.358 60.9737 151.039 66.0377Z" fill="white"/>
<path fill-rule="evenodd" clip-rule="evenodd" d="M144.917 55.6221C147.531 55.7706 149.439 56.6294 150.509 58.1427L150.629 58.3177C151.158 59.0811 151.603 59.5615 151.797 61.0063L151.816 61.1599C151.927 62.1104 151.96 63.1131 151.903 63.4458C151.872 63.5864 151.812 63.6355 151.735 63.6206C151.563 63.5868 151.115 62.7917 150.393 61.2353L149.787 61.9446C149.457 62.3255 148.758 62.6846 148.344 62.9545C147.929 63.2244 144.917 55.6221 144.917 55.6221Z" fill="#E7EAEE"/>
<path fill-rule="evenodd" clip-rule="evenodd" d="M147.556 69.9984C149.012 70.6055 150.118 71.394 150.411 71.0661C150.704 70.7381 149.704 69.7395 148.927 68.3831C148.114 67.0343 147.342 65.3354 147.197 64.6442L146.827 62.897C145.746 64.262 144.733 68.8417 147.556 69.9984Z" fill="white"/>
<path d="M164.48 153.395L164.401 158.253H161.638L160.811 152.679L164.48 153.395Z" fill="white"/>
<path d="M134.217 127.562C134.217 127.562 152.147 127.166 157.783 126.353C164.04 125.45 167.461 123.318 168.822 123.57C169.46 123.688 173.223 124.355 181.076 125.19C184.398 125.543 193.019 125.597 193.019 125.597L196.365 118.475C196.365 118.475 172.818 113.748 165.374 115.794C163.032 116.438 157.961 117.366 151.932 117.027C146.718 116.734 132.539 113.98 132.539 113.98C132.539 113.98 126.814 116.035 127.85 121.089C128.886 126.143 134.217 127.562 134.217 127.562Z" fill="white"/>
<path fill-rule="evenodd" clip-rule="evenodd" d="M194.447 121.522L195.549 118.331C195.549 118.331 172.042 113.946 164.597 115.992C162.255 116.636 160.139 117.697 154.11 117.358C151.802 117.228 147.856 116.688 142.271 115.737C139.446 115.256 138.993 115.434 141.213 116.886C146.361 120.253 157.814 119.46 168.205 117.942C187.518 115.123 194.447 121.522 194.447 121.522Z" fill="#E7EAEE"/>
<path d="M161.361 154.498C160.191 155.79 158.641 157.919 159.439 160.05L173.29 164.311C173.29 164.311 173.822 162.712 173.024 161.382C172.223 160.05 164.666 154.792 164.666 154.792L161.361 154.498Z" fill="white"/>
<path fill-rule="evenodd" clip-rule="evenodd" d="M167.754 157.385C167.846 157.36 167.94 157.414 167.965 157.506C167.99 157.598 167.936 157.692 167.844 157.717C167.393 157.839 167.096 158.124 166.991 158.485C166.856 158.952 166.841 159.429 166.995 160.193C167.014 160.286 166.953 160.377 166.86 160.396C166.767 160.414 166.676 160.354 166.658 160.261C166.494 159.444 166.51 158.911 166.661 158.39C166.799 157.912 167.189 157.538 167.754 157.385Z" fill="#E7EAEE"/>
<path fill-rule="evenodd" clip-rule="evenodd" d="M160.127 160.279L173.753 164.288C173.753 164.288 175.484 163.925 173.695 163.67C171.856 163.409 161.092 158.48 159.908 159.378C159.739 159.505 160.023 160.001 160.127 160.279Z" fill="#E7EAEE"/>
<path d="M126.174 126.545C126.174 126.545 132.322 128.486 137.274 129.214C142.225 129.941 152.101 130.355 152.101 130.355C152.101 130.355 155.185 132.031 155.384 132.808C155.461 133.11 155.928 137.105 157.22 142.209C157.828 144.61 161.075 155.466 161.075 155.466L165.373 153.564C165.373 153.564 165.201 133.609 162.457 126.991C159.713 120.372 131.511 113.944 131.511 113.944C131.511 113.944 125.526 112.861 123.896 117.756C122.267 122.651 126.174 126.545 126.174 126.545Z" fill="white"/>
<path fill-rule="evenodd" clip-rule="evenodd" d="M161.764 154.778L166.062 152.876C165.947 139.573 164.975 130.715 163.146 126.303C163.146 126.303 165.015 149.792 161.764 154.778Z" fill="#E7EAEE"/>
<path d="M199.243 121.785C200.313 123.161 202.14 125.058 204.377 124.642L210.979 111.741C210.979 111.741 209.28 110.99 207.831 111.545C206.38 112.102 199.999 118.761 199.999 118.761L199.243 121.785Z" fill="white"/>
<path fill-rule="evenodd" clip-rule="evenodd" d="M170.568 159.676C170.637 159.61 170.746 159.612 170.811 159.681C170.877 159.75 170.875 159.858 170.806 159.924C170.406 160.307 170.332 160.949 170.561 161.336C170.61 161.418 170.583 161.523 170.501 161.572C170.419 161.62 170.314 161.593 170.265 161.511C169.956 160.989 170.051 160.171 170.568 159.676Z" fill="#E7EAEE"/>
<path fill-rule="evenodd" clip-rule="evenodd" d="M169.163 158.541C169.232 158.476 169.341 158.479 169.406 158.548C169.471 158.618 169.468 158.726 169.398 158.792L169.305 158.881C168.582 159.593 168.374 160.215 169.011 160.883C169.077 160.952 169.074 161.061 169.006 161.126C168.937 161.192 168.828 161.189 168.762 161.12C168.292 160.627 168.195 160.094 168.404 159.56C168.547 159.193 168.798 158.884 169.163 158.541Z" fill="#E7EAEE"/>
<path fill-rule="evenodd" clip-rule="evenodd" d="M162.542 158.315C162.937 159.07 165.033 158.76 164.668 156.673C164.496 155.685 161.448 156.225 162.542 158.315Z" fill="#E7EAEE"/>
<path fill-rule="evenodd" clip-rule="evenodd" d="M203.068 124.882C205.838 121.716 207.43 114.596 209.712 112.146C210.517 111.281 211.562 111.087 210.437 113.134C208.38 116.88 204.427 124.882 204.427 124.882C204.217 124.986 203.959 124.882 203.725 124.882H203.068Z" fill="#E7EAEE"/>
<path d="M157.411 114.097C159.94 114.763 161.239 116.347 162.335 117.823C163.434 119.299 161.018 118.597 159.686 118.064C158.353 117.531 155.804 115.51 155.804 115.51L157.411 114.097Z" fill="white"/>
<path d="M134.367 108.104C134.367 108.104 148.608 114.222 150.615 114.23C152.619 114.238 157.539 116.627 157.805 118.491C158.128 120.759 149.548 117.426 149.548 117.426C149.548 117.426 130.371 117.426 127.177 114.23C123.979 111.033 126.11 104.375 126.11 104.375L134.367 108.104Z" fill="white"/>
<path d="M130.904 79.6058C130.904 79.6058 134.367 81.7363 134.899 88.6613C135.431 95.5861 133.301 103.843 133.301 103.843C133.301 103.843 134.633 104.908 134.899 105.973C135.165 107.039 134.356 108.445 134.356 108.445C134.356 108.445 126.377 112.366 125.844 112.632C125.311 112.898 123.181 112.099 123.181 109.968C123.181 107.838 123.98 105.973 123.98 105.973C124.362 91.9173 122.115 78.2739 130.904 79.6058Z" fill="white"/>
<path fill-rule="evenodd" clip-rule="evenodd" d="M145.011 64.8704C145.83 63.7734 147.562 63.4163 148.024 65.1481C148.024 65.1481 148.379 66.193 147.663 66.8386C145.471 68.8165 144.192 65.9674 145.011 64.8704Z" fill="white"/>
<path fill-rule="evenodd" clip-rule="evenodd" d="M149.586 66.0606C150.364 65.0185 152.009 64.6792 152.448 66.3244C152.448 66.3244 152.786 67.3171 152.106 67.9305C150.023 69.8095 148.808 67.1028 149.586 66.0606Z" fill="white"/>
<path d="M143.213 79.3995C143.213 79.3995 143.213 92.2022 143.401 99.3566C143.589 106.511 141.949 113.56 138.816 119.073C135.683 124.585 136.11 132.472 133.8 133.058C115.533 137.694 120.451 80.9542 127.21 77.3284C133.969 73.7026 136.202 72.9346 136.202 72.9346" fill="white"/>
<path fill-rule="evenodd" clip-rule="evenodd" d="M133.845 82.9927L132.27 85.3431C132.14 85.5381 132.238 85.8036 132.464 85.8662L134.565 86.447C134.809 86.5145 135.04 86.3039 134.995 86.0546L134.469 83.1233C134.414 82.8188 134.017 82.7356 133.845 82.9927ZM134.187 83.3543L134.657 86.1154L132.83 85.3431L134.187 83.3543Z" fill="#FFB61D"/>
<path fill-rule="evenodd" clip-rule="evenodd" d="M128.78 80.6964L126.925 83.6743C126.806 83.8645 126.898 84.1154 127.112 84.1838L130.351 85.2223C130.621 85.3088 130.874 85.0504 130.781 84.7826L129.397 80.7662C129.303 80.4924 128.933 80.4506 128.78 80.6964ZM129.22 81.0592L130.168 84.7825L127.359 83.6742L129.22 81.0592Z" fill="#FFB61D"/>
<path fill-rule="evenodd" clip-rule="evenodd" d="M127.637 103.226L128.899 107.969C128.977 108.26 129.365 108.318 129.524 108.062L131.4 105.037C131.504 104.869 131.446 104.648 131.273 104.553L128.135 102.836C127.869 102.691 127.559 102.934 127.637 103.226ZM127.97 103.367L130.878 104.855L129.232 107.881L127.97 103.367Z" fill="#FFB61D"/>
<path fill-rule="evenodd" clip-rule="evenodd" d="M125.11 120.64L125.798 123.891C125.861 124.189 126.252 124.264 126.421 124.01L128.28 121.213C128.417 121.007 128.298 120.728 128.054 120.684L125.507 120.23C125.266 120.187 125.059 120.401 125.11 120.64ZM125.71 120.589L127.917 121.371L126.013 123.546L125.71 120.589Z" fill="#FFB61D"/>
<path fill-rule="evenodd" clip-rule="evenodd" d="M131.073 119.953L131.761 123.203C131.824 123.502 132.216 123.576 132.384 123.323L134.243 120.526C134.38 120.319 134.261 120.04 134.017 119.997L131.47 119.543C131.23 119.5 131.023 119.714 131.073 119.953ZM131.392 120.235L133.961 120.164L131.847 122.881L131.392 120.235Z" fill="#FFB61D"/>
<path fill-rule="evenodd" clip-rule="evenodd" d="M127.862 113.301L128.55 116.552C128.613 116.85 129.005 116.925 129.173 116.671L131.032 113.874C131.169 113.668 131.05 113.389 130.806 113.345L128.259 112.891C128.019 112.848 127.812 113.062 127.862 113.301ZM128.199 113.23L130.516 113.913L128.657 116.251L128.199 113.23Z" fill="#FFB61D"/>
<path fill-rule="evenodd" clip-rule="evenodd" d="M204.022 123.819C203.849 124.157 203.565 124.298 203.187 124.319C201.84 124.394 200.773 123.8 199.82 122.934C199.459 122.606 199.139 122.233 198.777 121.905C198.522 121.675 198.25 121.525 197.852 121.668C197.548 121.777 197.191 121.736 196.858 121.77C196.108 121.846 195.36 121.946 194.608 122.001C194.129 122.035 194.118 122.444 194.005 122.726C193.751 123.364 193.561 124.028 193.358 124.686C193.28 124.942 193.155 125.043 192.868 125.039C191.435 125.022 190.002 125.023 188.57 125.035C187.917 125.04 187.264 125.118 186.613 125.103C185.387 125.076 184.16 125.036 182.938 124.942C181.756 124.852 180.58 124.681 179.4 124.555C178.572 124.467 177.738 124.42 176.913 124.308C175.954 124.178 175.002 123.988 174.045 123.841C173.566 123.767 173.079 123.746 172.599 123.675C171.777 123.554 170.955 123.428 170.138 123.276C169.38 123.135 168.666 123.281 167.953 123.517C166.563 123.976 165.17 124.424 163.777 124.869C163.529 124.949 163.456 125.014 163.568 125.315C163.978 126.419 164.363 127.536 164.697 128.666C164.933 129.463 165.096 130.284 165.247 131.103C165.433 132.107 165.588 133.116 165.726 134.127C165.831 134.9 165.898 135.678 165.968 136.455C166.056 137.442 166.139 138.43 166.206 139.419C166.272 140.404 166.328 141.39 166.365 142.377C166.428 144.052 166.476 145.727 166.526 147.403C166.557 148.417 166.576 149.432 166.609 150.447C166.619 150.741 166.714 151.043 166.669 151.326C166.635 151.539 166.483 151.838 166.309 151.905C165.862 152.077 165.732 152.41 165.736 152.869C165.741 153.455 165.815 154.041 165.8 154.626C165.79 154.998 165.932 155.259 166.203 155.456C167.434 156.354 168.677 157.235 169.908 158.134C170.492 158.561 171.068 159 171.627 159.457C172.227 159.948 172.814 160.454 173.385 160.976C173.955 161.497 174.258 162.134 174.354 162.928C174.428 163.544 174.349 164.116 174.247 164.701C174.193 165.006 174.019 165.131 173.702 165.028C172.369 164.593 171.039 164.15 169.7 163.735C167.488 163.051 165.271 162.386 163.055 161.714C162.265 161.474 161.476 161.235 160.685 160.998C160.201 160.853 160.098 160.419 160.009 160.025C159.753 158.907 160.083 157.89 160.673 156.952C161.034 156.378 161.454 155.842 161.849 155.29C162.171 154.838 162.088 154.376 161.928 153.888C161.409 152.298 160.898 150.706 160.407 149.107C159.923 147.529 159.442 145.949 159.003 144.358C158.539 142.676 158.118 140.983 157.694 139.29C157.464 138.375 157.248 137.455 157.062 136.529C156.923 135.837 156.844 135.133 156.735 134.435C156.604 133.602 156.526 132.753 156.311 131.942C156.219 131.592 155.88 131.272 155.584 131.019C154.94 130.468 154.201 130.057 153.397 129.776C153.198 129.707 152.983 129.659 152.774 129.651C151.777 129.614 150.779 129.604 149.782 129.564C148.809 129.524 147.835 129.47 146.863 129.405C145.861 129.337 144.859 129.256 143.858 129.167C142.786 129.07 141.711 128.994 140.647 128.84C139.52 128.677 138.403 128.441 137.284 128.222C136.92 128.151 136.654 128.372 136.598 128.885C136.474 130.006 136.093 131.049 135.64 132.07C135.314 132.806 134.698 133.174 133.938 133.299C133.395 133.389 132.84 133.474 132.294 133.454C130.741 133.395 129.356 132.883 128.124 131.898C126.561 130.648 125.647 128.979 124.869 127.2C124.52 126.402 124.071 125.641 123.797 124.82C123.499 123.929 123.349 122.988 123.142 122.066C122.981 121.35 122.816 120.633 122.681 119.911C122.574 119.34 122.506 118.762 122.425 118.186C122.317 117.421 122.21 116.656 122.107 115.891C122.073 115.638 122.039 115.383 122.029 115.128C121.995 114.331 121.979 113.532 121.945 112.735C121.898 111.616 121.809 110.498 121.794 109.379C121.769 107.465 121.772 105.551 121.795 103.637C121.805 102.796 121.876 101.955 121.951 101.117C122.037 100.165 122.167 99.2165 122.262 98.2648C122.33 97.5854 122.351 96.901 122.429 96.223C122.543 95.2282 122.669 94.2337 122.828 93.2453C123.017 92.0697 123.233 90.8979 123.462 89.7293C123.895 87.5177 124.399 85.3195 125.223 83.2182C125.748 81.8795 126.296 80.5138 127.369 79.5032C127.833 79.0658 128.478 78.8137 129.054 78.5032C130.637 77.651 132.228 76.8143 133.812 75.9632C133.886 75.9234 133.949 75.8077 133.961 75.7196C134.003 75.4145 133.985 75.0968 134.06 74.8018C134.109 74.6097 134.243 74.3989 134.403 74.2827C134.937 73.8931 135.496 73.5378 136.053 73.1806C136.153 73.1167 136.294 73.0607 136.404 73.0784C136.991 73.1732 137.286 72.8119 137.487 72.3672C137.76 71.7651 138.008 71.1491 138.22 70.5231C138.57 69.4862 138.923 68.4467 139.188 67.3866C139.28 67.0209 139.139 66.5847 139.057 66.1907C138.889 65.389 138.749 64.5725 138.479 63.8041C138.306 63.3129 137.956 62.8673 137.621 62.4527C136.756 61.3808 136.302 60.1802 136.447 58.8047C136.511 58.2074 136.767 57.6508 137.214 57.2169C137.739 56.7062 138.278 56.2092 138.806 55.7002C139.19 55.3291 139.163 55.0454 138.662 54.6827C137.961 54.175 137.289 53.6264 136.619 53.0783C136.047 52.6103 135.8 51.9415 135.649 51.2559C135.443 50.3233 135.418 49.3824 135.798 48.472C136.407 47.0161 137.283 45.8146 138.888 45.3616C140.303 44.9623 141.714 44.9894 142.983 45.7912C144.137 46.5197 144.869 47.6049 145.191 48.9442C145.57 50.516 145.139 51.9305 144.345 53.2758C144.278 53.3885 144.271 53.5365 144.237 53.668C144.355 53.6904 144.472 53.7274 144.591 53.7328C146.119 53.8024 147.638 53.972 149.006 54.7002C150.802 55.656 151.932 57.1709 152.43 59.1426C152.504 59.4378 152.504 59.755 152.513 60.0628C152.547 61.1125 152.55 62.1637 152.612 63.2115C152.625 63.4302 152.792 63.6987 152.971 63.8388C153.83 64.5113 154.122 66.1582 153.323 67.1331C153.243 67.2306 153.175 67.3379 153.097 67.4367C152.79 67.8229 152.345 68.0104 151.902 67.9315C151.525 67.8643 151.493 67.9913 151.368 68.2699C151.102 68.8642 150.783 69.4392 150.44 69.9933C149.98 70.7362 149.51 71.4781 148.977 72.1693C148.656 72.5867 148.221 72.9226 147.814 73.2674C147.32 73.6856 146.798 74.0702 146.295 74.478C146.045 74.6814 145.77 74.7864 145.449 74.7402C145.117 74.6922 144.93 74.8792 144.832 75.1483C144.644 75.6681 144.475 76.1955 144.326 76.7279C144.295 76.8401 144.361 77.0037 144.429 77.1153C145.022 78.0913 145.611 79.0702 146.23 80.0293C146.733 80.8076 147.305 81.5424 147.791 82.3301C148.092 82.8174 148.292 83.3674 148.536 83.8898C148.961 84.8011 149.395 85.7085 149.801 86.6282C149.885 86.8175 149.908 87.0598 149.878 87.2664C149.836 87.5671 149.539 87.6631 149.218 87.469C148.844 87.2435 148.493 86.9799 148.143 86.7175C147.926 86.555 147.732 86.3636 147.526 86.1866C147.502 86.1661 147.47 86.1551 147.442 86.1396C147.437 86.1755 147.425 86.2126 147.43 86.2472C147.487 86.6517 147.534 87.0586 147.611 87.4594C147.691 87.8734 147.812 88.2791 147.896 88.6924C148.063 89.5134 148.225 90.3357 148.374 91.16C148.543 92.0871 148.704 93.0155 148.85 93.9462C148.925 94.4247 148.951 94.9108 149.016 95.3912C149.113 96.1175 149.236 96.8405 149.328 97.5676C149.378 97.9647 149.388 98.367 149.41 98.7674C149.441 99.3132 149.46 99.8595 149.492 100.405C149.569 101.752 149.647 103.098 149.732 104.444C149.753 104.777 149.949 105.034 150.25 105.129C151.104 105.401 151.702 106.399 151.558 107.232C151.524 107.425 151.481 107.626 151.396 107.8C151.192 108.219 151.458 108.457 151.724 108.675C152.154 109.028 152.603 109.361 153.053 109.69C154.12 110.473 155.195 111.245 156.262 112.028C157.23 112.736 158.297 113.229 159.442 113.578C160.361 113.859 161.143 114.39 161.878 115.003C162.239 115.304 162.551 115.749 163.123 115.639C163.932 115.484 164.739 115.315 165.546 115.149C165.789 115.099 166.028 115.025 166.273 114.983C167.124 114.837 167.627 114.234 168.128 113.611C168.501 113.147 168.917 112.718 169.305 112.266C170.069 111.377 170.824 110.481 171.587 109.591C171.966 109.149 172.357 108.717 172.74 108.278C173.819 107.041 174.892 105.798 175.979 104.567C176.548 103.922 177.141 103.298 177.72 102.661C177.876 102.49 178.043 102.323 178.166 102.129C178.354 101.835 178.545 101.745 178.912 101.863C179.713 102.123 179.699 102.073 179.139 102.688C178.135 103.788 177.165 104.919 176.177 106.034C175.695 106.579 175.195 107.11 174.716 107.658C173.876 108.62 173.048 109.593 172.209 110.557C171.614 111.241 171.011 111.919 170.408 112.597C169.942 113.121 169.469 113.639 169.004 114.165C168.964 114.211 168.932 114.338 168.946 114.347C169.06 114.418 169.188 114.524 169.307 114.519C170.281 114.481 171.253 114.407 172.227 114.373C172.956 114.348 173.687 114.348 174.416 114.373C175.35 114.406 176.285 114.446 177.215 114.535C178.251 114.635 179.281 114.794 180.315 114.925C181.374 115.059 182.437 115.17 183.492 115.329C184.547 115.488 185.593 115.703 186.646 115.878C187.517 116.023 188.395 116.13 189.266 116.282C190.376 116.475 191.481 116.7 192.589 116.904C193.367 117.046 194.149 117.171 194.927 117.314C195.677 117.452 196.424 117.612 197.175 117.745C197.649 117.829 198.126 117.914 198.605 117.934C198.805 117.942 199.061 117.833 199.209 117.692C200.347 116.609 201.45 115.49 202.593 114.413C203.872 113.207 205.21 112.069 206.653 111.058C207.313 110.595 208.052 110.675 208.771 110.738C209.19 110.774 209.595 110.976 210.005 111.107C210.342 111.214 210.372 111.422 210.222 111.716C209.542 113.051 208.874 114.393 208.193 115.728C207.604 116.883 207.005 118.031 206.391 119.202C205.588 120.755 204.806 122.288 204.022 123.819ZM141.044 113.97C141.401 112.935 141.715 111.884 141.998 110.826C142.181 110.139 142.285 109.429 142.403 108.726C142.524 108.003 142.625 107.277 142.723 106.551C142.836 105.708 143.013 104.864 143.027 104.018C143.054 102.319 142.984 100.62 142.965 98.9202C142.954 97.8816 142.948 96.8426 142.968 95.8043C142.984 94.9876 142.509 94.3788 142.162 93.709C141.932 93.2631 141.689 92.8131 141.541 92.337C141.271 91.4637 141.051 90.5735 140.842 89.683C140.699 89.0741 140.593 88.4551 140.499 87.8363C140.39 87.1202 140.155 86.4477 139.849 85.7979C139.824 85.7434 139.609 85.7036 139.586 85.7345C139.463 85.8994 139.371 86.0881 139.271 86.2703C139.094 86.5945 138.825 86.9033 138.764 87.2486C138.641 87.9386 138.323 88.5307 137.998 89.1228C137.796 89.4914 137.455 89.5009 137.218 89.1627C136.964 88.7992 136.689 88.4323 136.527 88.0255C136.145 87.0693 135.803 86.0956 135.485 85.1159C135.068 83.8284 134.674 82.5328 134.299 81.2322C134.103 80.5532 133.908 79.8635 133.826 79.1654C133.745 78.4809 133.809 77.7795 133.807 77.0855C133.807 77.0235 133.788 76.9614 133.777 76.8994C133.749 76.9215 133.724 76.948 133.693 76.965C132.965 77.3651 132.242 77.7739 131.508 78.1608C130.78 78.5445 130.048 78.9235 129.303 79.2728C128.486 79.6556 127.667 80.0505 127.194 80.8525C126.682 81.7201 126.084 82.5471 125.776 83.5252C125.458 84.5335 125.099 85.5302 124.822 86.5495C124.539 87.5921 124.347 88.6589 124.092 89.7095C123.929 90.3806 123.66 91.0316 123.554 91.7096C123.391 92.7439 123.29 93.7916 123.231 94.8375C123.181 95.7353 123.185 96.6352 123.064 97.5295C122.97 98.2237 122.906 98.9221 122.821 99.6177C122.692 100.677 122.46 101.734 122.444 102.794C122.407 105.142 122.504 107.492 122.493 109.841C122.487 111.072 122.671 112.275 122.816 113.488C122.977 114.836 123.072 116.19 123.226 117.538C123.33 118.455 123.435 119.376 123.63 120.275C123.948 121.739 124.29 123.202 124.715 124.638C125.245 126.43 126.023 128.117 127.118 129.648C127.803 130.605 128.639 131.388 129.671 131.951C131.069 132.715 132.57 132.649 134.073 132.416C134.319 132.378 134.638 132.188 134.744 131.978C135.039 131.39 135.298 130.769 135.466 130.133C135.706 129.23 135.811 128.292 136.046 127.387C136.433 125.895 136.921 124.428 137.285 122.932C137.586 121.699 138.158 120.586 138.656 119.44C139.022 118.596 139.455 117.782 139.898 116.915C140.283 115.934 140.7 114.965 141.044 113.97ZM154.247 129.199C154.971 129.641 155.681 130.11 156.369 130.605C156.799 130.915 157.108 131.364 157.203 131.884C157.421 133.087 157.566 134.303 157.777 135.508C157.925 136.354 158.138 137.188 158.314 138.029C158.457 138.713 158.589 139.4 158.725 140.086C158.859 140.76 158.989 141.435 159.124 142.108C159.227 142.622 159.334 143.135 159.442 143.647C159.618 144.476 159.758 145.314 159.985 146.129C160.208 146.931 160.545 147.701 160.79 148.498C161.198 149.824 161.705 151.108 162.292 152.365C162.431 152.663 162.666 152.603 162.804 152.549C163.682 152.205 164.549 151.829 165.41 151.443C165.681 151.321 165.826 151.085 165.813 150.762C165.779 149.885 165.756 149.008 165.732 148.13C165.703 147.08 165.678 146.031 165.651 144.981C165.625 143.953 165.619 142.925 165.566 141.898C165.514 140.896 165.415 139.895 165.332 138.894C165.229 137.647 165.133 136.4 165.01 135.155C164.926 134.295 164.848 133.43 164.686 132.583C164.404 131.117 164.059 129.663 163.741 128.204C163.371 126.503 162.656 125.021 161.243 123.908C160.166 123.061 159.037 122.304 157.816 121.699C156.466 121.03 155.1 120.378 153.698 119.829C152.095 119.2 150.539 118.406 148.774 118.261C147.926 118.192 147.085 118.043 146.239 117.953C145.56 117.881 144.875 117.86 144.196 117.786C143.122 117.668 142.052 117.512 140.977 117.407C140.826 117.392 140.599 117.533 140.507 117.67C140.294 117.983 140.134 118.334 139.968 118.677C139.45 119.748 138.843 120.789 138.449 121.905C137.928 123.379 137.575 124.912 137.152 126.421C136.913 127.275 136.908 127.313 137.653 127.47C138.515 127.65 139.391 127.77 140.265 127.891C140.836 127.969 141.415 127.991 141.989 128.057C143.075 128.182 144.159 128.331 145.247 128.448C145.939 128.523 146.634 128.568 147.329 128.609C148.368 128.671 149.407 128.729 150.447 128.767C151.07 128.789 151.694 128.771 152.397 128.771C153.049 128.759 153.687 128.856 154.247 129.199ZM185.447 124.235C186.117 124.266 186.787 124.299 187.457 124.313C189.011 124.346 190.565 124.372 192.119 124.391C192.43 124.395 192.709 124.266 192.793 123.947C193.243 122.228 194.128 120.634 194.242 118.815C194.271 118.354 194.071 118.028 193.6 117.946C193.109 117.86 192.624 117.739 192.134 117.646C191.518 117.528 190.899 117.425 190.282 117.312C189.728 117.21 189.175 117.104 188.622 116.998C188.217 116.919 187.814 116.833 187.409 116.756C186.634 116.61 185.858 116.466 185.081 116.324C184.551 116.227 184.02 116.127 183.488 116.042C183.075 115.975 182.658 115.934 182.244 115.873C181.369 115.746 180.495 115.613 179.621 115.482C179.121 115.408 178.623 115.326 178.122 115.258C177.455 115.168 176.786 115.016 176.118 115.02C174.442 115.029 172.766 115.103 171.091 115.168C170.29 115.199 169.487 115.244 168.691 115.334C168.245 115.384 167.817 115.525 167.493 115.901C166.967 116.512 166.401 117.09 165.869 117.698C165.533 118.081 165.219 118.484 164.912 118.891C164.506 119.43 164.01 119.757 163.302 119.703C162.142 119.613 160.98 119.547 159.82 119.458C159.39 119.425 158.961 119.361 158.533 119.301C157.807 119.199 157.084 119.081 156.357 118.986C155.662 118.895 154.965 118.82 154.267 118.748C154.071 118.728 153.87 118.739 153.671 118.75C153.632 118.752 153.596 118.82 153.558 118.857C153.599 118.876 153.64 118.893 153.68 118.914C154.029 119.096 154.368 119.299 154.728 119.457C155.781 119.923 156.868 120.32 157.895 120.837C159.386 121.587 160.778 122.503 162.044 123.604C162.436 123.946 162.813 124.199 163.456 124.114C164.476 123.978 165.429 123.726 166.345 123.281C167.577 122.682 168.83 122.19 170.246 122.484C171.066 122.654 171.89 122.802 172.708 122.978C173.227 123.089 173.733 123.272 174.255 123.35C174.903 123.446 175.563 123.463 176.217 123.52C177.407 123.624 178.596 123.734 179.786 123.837C180.593 123.907 181.402 123.97 182.25 124.076C183.315 124.129 184.381 124.185 185.447 124.235ZM143.994 101.246C144.006 101.564 143.993 101.883 143.999 102.201C144.024 103.688 144.047 105.176 144.08 106.663C144.09 107.094 144.071 107.539 144.17 107.953C144.37 108.791 144.633 109.615 144.888 110.439C144.998 110.791 145.15 111.127 145.549 111.267C145.896 111.388 146.232 111.541 146.579 111.66C147.095 111.837 147.253 111.77 147.59 111.299C147.701 111.143 147.829 110.998 147.954 110.853C148.76 109.913 149.59 108.993 150.366 108.029C150.939 107.318 150.84 106.174 149.88 105.806C149.777 105.767 149.675 105.719 149.568 105.697C149.001 105.58 149.027 105.581 149.008 105.046C148.941 103.132 149.166 101.214 148.865 99.3021C148.745 98.539 148.794 97.7499 148.684 96.9846C148.512 95.7937 148.275 94.6121 148.057 93.4282C147.85 92.3083 147.644 91.1884 147.418 90.0724C147.249 89.2396 147.046 88.4138 146.865 87.5836C146.726 86.9504 146.618 86.3098 146.45 85.6845C146.405 85.5155 146.195 85.3904 146.061 85.2452C145.904 85.3969 145.629 85.5351 145.61 85.7024C145.514 86.5507 145.383 87.4154 145.458 88.2573C145.543 89.2242 145.688 90.1828 145.504 91.1429C145.293 92.2367 144.943 93.2872 144.351 94.2443C144.022 94.7749 143.777 95.3254 143.832 95.9819C143.888 96.6314 143.906 97.2851 143.915 97.9374C143.928 98.8654 143.918 99.7937 143.918 100.801C143.945 100.95 143.989 101.097 143.994 101.246ZM139.82 68.378C139.753 68.4817 139.661 68.5769 139.624 68.6904C139.245 69.8473 138.9 71.0155 138.496 72.1631C138.253 72.8546 137.871 73.4715 137.239 73.906C136.78 74.2217 136.352 74.5818 135.903 74.9123C135.681 75.0753 135.728 75.2164 135.866 75.4144C136.279 76.0065 136.716 76.589 137.061 77.2204C137.537 78.0918 137.945 79.001 138.369 79.9002C138.782 80.7764 139.213 81.6466 139.57 82.5454C139.874 83.3091 140.037 84.1291 140.35 84.8884C140.632 85.5748 140.935 86.2514 141.038 86.9866C141.073 87.2365 141.154 87.2386 141.343 87.2379C142.481 87.2339 143.581 87.0834 144.541 86.4057C144.623 86.3478 144.692 86.2287 144.708 86.1288C144.745 85.887 144.739 85.6386 144.767 85.3949C144.787 85.223 144.899 85.0371 144.859 84.8872C144.71 84.3301 144.511 83.7863 144.337 83.2355C144.004 82.1833 143.568 81.1422 143.539 80.0321C143.508 78.9025 143.61 77.7679 143.687 76.6378C143.719 76.1768 143.809 75.7142 143.926 75.2661C144.063 74.7405 144.03 74.5967 143.556 74.3403C142.775 73.9185 142.102 73.3511 141.621 72.6194C140.836 71.4253 140.233 70.1402 140.018 68.6547C139.952 68.5625 139.886 68.4702 139.82 68.378ZM151.144 68.0257C151.166 67.9827 151.359 67.8488 151.072 67.8004C150.782 67.7515 150.454 67.6107 150.255 67.4029C149.864 66.9953 149.541 66.5205 149.212 66.0574C149.119 65.9263 149.086 65.8467 148.956 66.0039C148.873 66.1036 148.765 66.1828 148.682 66.2827C147.964 67.1501 146.931 67.5184 145.964 67.2774C144.805 66.9884 144.098 65.7524 144.082 64.6801C144.076 64.2526 143.941 63.8943 143.599 63.6485C143.031 63.2392 142.447 62.8521 141.863 62.4654C141.536 62.2489 141.224 62.3197 141.14 62.6611C140.931 63.5063 140.671 64.3535 140.598 65.214C140.507 66.2786 140.55 67.3535 140.805 68.4158C141.233 70.2055 141.789 71.9063 143.249 73.1675C144.191 73.9807 145.354 74.1637 146.475 73.6715C147.587 73.1838 148.269 72.2816 148.933 71.3427C149.492 70.5534 150.048 69.763 150.645 68.9333C150.814 68.6319 150.989 68.3337 151.144 68.0257ZM199.266 121.182C200.038 122.164 200.936 122.984 202.165 123.381C202.924 123.626 203.202 123.583 203.622 122.782C204.479 121.149 205.326 119.51 206.17 117.87C206.508 117.215 206.819 116.547 207.157 115.893C207.817 114.614 208.486 113.34 209.155 112.065C209.277 111.833 209.161 111.622 208.981 111.598C208.357 111.515 207.698 111.337 207.118 111.722C206.354 112.231 205.585 112.742 204.881 113.329C203.815 114.219 202.788 115.159 201.776 116.112C201.317 116.544 200.93 117.053 200.522 117.538C200.2 117.92 199.786 118.243 199.663 118.766C199.55 119.249 199.438 119.733 199.326 120.297C199.193 120.585 199.045 120.901 199.266 121.182ZM172.974 163.888C173.156 163.902 173.507 163.82 173.508 163.771C173.532 163.086 173.661 162.36 173.047 161.825C172.248 161.13 171.474 160.403 170.641 159.752C169.296 158.701 167.913 157.7 166.545 156.679C166.056 156.314 165.57 155.927 164.948 155.832C164.391 155.747 163.824 155.736 163.265 155.661C162.794 155.598 162.473 155.802 162.187 156.141C161.493 156.964 160.988 157.879 160.797 158.947C160.647 159.784 160.917 160.246 161.593 160.445C162.88 160.824 164.157 161.234 165.442 161.621C166.362 161.899 167.291 162.149 168.21 162.432C169.549 162.846 170.883 163.278 172.299 163.703C172.524 163.768 172.746 163.87 172.974 163.888ZM145.948 112.298C145.06 111.946 144.176 111.581 143.285 111.234C143.022 111.132 142.798 111.102 142.711 111.507C142.617 111.947 142.416 112.364 142.271 112.794C141.949 113.748 141.625 114.701 141.32 115.661C141.264 115.838 141.178 116.087 141.528 116.121C141.985 116.165 142.438 116.241 142.895 116.275C143.788 116.339 144.681 116.403 145.575 116.433C146.903 116.477 148.232 116.492 149.561 116.516C149.985 116.523 150.41 116.515 150.834 116.518C150.938 116.518 151.047 116.511 151.143 116.541C152.293 116.9 153.44 117.273 154.591 117.629C155.749 117.987 156.91 118.339 158.147 118.27C158.577 118.246 158.656 118.165 158.498 117.77C158.411 117.554 158.292 117.334 158.133 117.168C157.358 116.356 156.412 115.789 155.399 115.323C154.593 114.951 153.804 114.537 152.897 114.443C152.472 114.4 152.044 114.339 151.632 114.232C150.977 114.062 150.327 113.866 149.686 113.648C148.885 113.375 148.096 113.069 147.222 112.777C146.797 112.618 146.37 112.465 145.948 112.298ZM135.954 77.1708C135.581 76.5936 135.189 76.029 134.804 75.4597C134.751 75.3805 134.692 75.3046 134.636 75.2271C134.599 75.3575 134.547 75.4857 134.527 75.6186C134.464 76.058 134.428 76.5019 134.353 76.939C134.203 77.8043 134.122 78.6544 134.683 79.4235C134.718 79.4722 134.746 79.5306 134.762 79.5888C134.968 80.3384 135.171 81.0891 135.377 81.8389C135.429 82.0288 135.483 82.2183 135.545 82.405C135.814 83.208 136.139 83.9967 136.341 84.8158C136.548 85.6572 136.707 86.5029 137.139 87.2714C137.263 87.4922 137.303 87.7588 137.394 87.9996C137.421 88.0714 137.511 88.1871 137.54 88.1782C137.631 88.1497 137.751 88.0894 137.782 88.0109C138.138 87.0965 138.309 86.0978 138.985 85.3299C139.559 84.6778 139.44 84.0114 139.088 83.3151C138.95 83.043 138.865 82.745 138.742 82.4648C138.477 81.8591 138.223 81.2471 137.926 80.6569C137.666 80.1413 137.352 79.6534 137.066 79.1507C136.865 78.7973 136.672 78.4396 136.435 78.044C136.276 77.7522 136.134 77.4494 135.954 77.1708ZM157.457 113.69C156.294 112.939 155.115 112.209 153.989 111.407C153.045 110.735 152.171 109.966 151.255 109.256C151.007 109.065 150.723 109.001 150.47 109.29C150.061 109.758 149.643 110.219 149.234 110.688C148.93 111.037 148.637 111.396 148.332 111.745C148.094 112.017 148.119 112.163 148.468 112.268C149.589 112.603 150.719 112.912 151.838 113.258C153.364 113.731 154.889 114.211 156.402 114.725C156.886 114.89 157.313 115.222 157.796 115.389C158.287 115.559 158.812 115.647 159.329 115.719C159.927 115.803 160.532 115.836 161.135 115.873C161.231 115.879 161.333 115.793 161.432 115.75C161.373 115.668 161.329 115.569 161.253 115.507C160.298 114.725 159.156 114.321 157.969 113.891C157.797 113.825 157.608 113.787 157.457 113.69ZM142.319 92.7309C142.467 93.2916 142.818 93.5642 143.359 93.615C143.826 93.6589 143.963 93.4028 144.077 93.0616C144.24 92.5729 144.401 92.0836 144.554 91.5917C144.894 90.4992 144.845 89.3984 144.642 88.2878C144.576 87.9256 144.591 87.5482 144.575 87.1776C144.572 87.1237 144.6 87.0685 144.613 87.014C144.559 87.0299 144.502 87.041 144.45 87.0626C144.122 87.1982 143.806 87.386 143.466 87.4625C142.827 87.606 142.176 87.7009 141.527 87.7838C141.276 87.8158 141.127 87.8421 141.207 88.149C141.282 88.4389 141.312 88.7403 141.372 89.0346C141.501 89.6686 141.636 90.3014 141.769 91.0142C141.955 91.5858 142.166 92.1507 142.319 92.7309ZM149.122 86.7451C149.184 86.7976 149.253 86.8419 149.318 86.8899C149.318 86.801 149.342 86.7027 149.313 86.6247C149.141 86.1665 148.98 85.7013 148.769 85.2602C148.32 84.3187 147.908 83.3507 147.36 82.4683C146.821 81.6008 146.096 80.8512 145.523 80.0018C145.113 79.3934 144.823 78.7046 144.473 78.0551C144.419 77.9552 144.33 77.8743 144.258 77.7846C144.224 77.89 144.16 77.9962 144.162 78.1007C144.179 78.779 144.188 79.4588 144.245 80.1343C144.283 80.5951 144.361 81.0593 144.485 81.5043C144.622 81.9984 144.872 82.4621 145 82.9578C145.151 83.5378 145.426 83.9047 145.988 84.2145C146.919 84.7283 147.881 85.2623 148.536 86.2399C148.731 86.4085 148.925 86.5783 149.122 86.7451ZM144.976 64.261C144.67 64.7061 145.237 66.2655 145.545 66.3815C147.702 67.1935 148.317 65.804 148.346 65.4224C148.402 64.6653 148.495 63.8976 147.779 63.2837C145.891 62.9081 145.469 63.5417 144.976 64.261ZM153.236 64.8914C152.946 64.169 152.507 63.6979 151.743 63.8628C151.353 63.9469 151.01 64.2559 150.651 64.4729C149.881 64.9389 149.78 65.1939 150.049 66.02C150.319 66.8468 150.948 67.3204 151.748 67.4812C152.41 67.6143 152.883 67.2036 153.232 66.5859C153.321 66.0215 153.466 65.4631 153.236 64.8914ZM150.379 63.9573C150.69 63.7361 151.028 63.4086 151.363 63.3965C151.944 63.3755 151.849 63.021 151.787 62.7418C151.612 61.9617 151.383 61.1931 151.16 60.4246C151.007 59.8984 150.878 59.8682 150.507 60.2388C149.873 60.8736 149.229 61.4961 148.432 61.9343C148.182 62.0714 148.148 62.3871 148.327 62.6358C148.393 62.7284 148.483 62.8079 148.533 62.9079C148.778 63.401 149 63.9059 149.262 64.3898C149.32 64.4967 149.276 64.875 149.65 64.5964C149.892 64.3814 150.117 64.1436 150.379 63.9573ZM197.226 121.039C197.768 120.938 198.348 120.799 198.432 120.079C198.446 119.958 198.501 119.842 198.529 119.722C198.699 118.977 198.506 118.739 197.76 118.659C197.058 118.583 196.361 118.458 195.664 118.345C195.29 118.285 195.222 118.355 195.18 118.735C195.123 119.261 195.041 119.786 194.943 120.306C194.857 120.762 194.984 121.122 195.385 121.212C196 121.159 196.623 121.151 197.226 121.039ZM164.718 154.938C164.794 154.935 164.922 154.784 164.925 154.699C164.944 154.129 164.93 153.559 164.937 152.99C164.94 152.67 164.695 152.659 164.519 152.715C164.136 152.837 163.771 153.019 163.401 153.182C163.134 153.3 162.834 153.395 162.866 153.78C162.889 154.052 162.889 154.331 162.951 154.594C163.056 155.031 163.433 154.823 163.741 154.91C164.067 154.923 164.393 154.953 164.718 154.938ZM143.514 108.65C143.492 108.586 143.397 108.546 143.336 108.495C143.291 108.559 143.213 108.62 143.207 108.687C143.17 109.096 143.138 109.506 143.125 109.917C143.113 110.318 143.397 110.578 143.805 110.541C143.874 110.535 143.997 110.413 143.988 110.364C143.928 110.038 143.839 109.718 143.719 109.355C143.653 109.12 143.596 108.881 143.514 108.65ZM165.944 116.168C165.988 116.08 166.081 115.836 165.811 115.887C165.399 115.964 164.994 116.081 164.589 116.192C164.515 116.212 164.454 116.281 164.387 116.328C164.465 116.364 164.541 116.43 164.62 116.432C164.95 116.444 165.281 116.437 165.651 116.398C165.753 116.323 165.893 116.268 165.944 116.168ZM135.201 74.4235C135.138 74.4604 135.074 74.4973 135.011 74.5342C135.061 74.5899 135.102 74.6671 135.164 74.6931C135.201 74.7086 135.283 74.6552 135.326 74.6136C135.571 74.3762 135.812 74.1342 136.051 73.8909C136.098 73.8421 136.133 73.7806 136.174 73.7249C136.094 73.7406 135.992 73.7309 135.936 73.7765C135.697 73.97 135.472 74.1798 135.201 74.4235Z" fill="#00160A"/>
<path fill-rule="evenodd" clip-rule="evenodd" d="M143.732 69.7886C143.359 69.587 142.99 69.4216 142.913 68.9722C142.762 68.0992 143.077 67.0706 144.214 67.1304C145.24 67.1843 145.891 68.0363 145.528 68.9987C145.261 69.7082 144.611 70.0601 143.732 69.7886Z" fill="#FFB61D"/>
<path fill-rule="evenodd" clip-rule="evenodd" d="M148.791 66.5322C148.812 66.3983 148.832 66.3046 148.853 66.2109C148.885 66.2926 148.926 66.3719 148.948 66.4565C149.108 67.0827 149.615 68.6419 149.011 69.3594C148.961 69.4191 148.706 69.4285 148.547 69.4185C148.235 69.3987 147.872 68.9386 147.929 68.6419C147.938 68.5974 148.691 69.328 148.853 68.9326C149.122 68.2732 148.791 66.7589 148.791 66.5322Z" fill="#00160A"/>
<path fill-rule="evenodd" clip-rule="evenodd" d="M144.544 71.1009C144.513 71.085 144.469 71.0893 144.432 71.0908C144.339 71.0947 144.212 70.9286 144.266 70.8583C144.348 70.7526 144.44 70.6458 144.55 70.5762C144.616 70.5347 144.724 70.6691 144.716 70.7286C144.71 70.773 144.752 70.8426 144.793 70.8726C145.416 71.3306 146.108 71.6273 146.866 71.7699C146.916 71.7794 146.959 71.824 147.006 71.8523C146.959 71.8846 146.913 71.9471 146.866 71.9444C146.04 71.8962 145.085 71.3754 144.544 71.1009Z" fill="#00160A"/>
<path fill-rule="evenodd" clip-rule="evenodd" d="M124.419 106.958L123.634 110.309C123.574 110.568 123.818 110.795 124.072 110.716L126.795 109.868C127.025 109.797 127.112 109.519 126.965 109.329L125.026 106.826C124.849 106.597 124.485 106.676 124.419 106.958ZM124.754 107.495L126.464 109.54L123.97 110.388L124.754 107.495Z" fill="#FFB61D"/>
<path fill-rule="evenodd" clip-rule="evenodd" d="M126.854 87.6255C126.567 87.5998 126.377 87.9167 126.535 88.1572L128.531 91.1907C128.665 91.3952 128.964 91.3978 129.102 91.1957L130.939 88.506C131.087 88.2891 130.947 87.9929 130.686 87.9694L126.854 87.6255ZM127.124 87.9694L130.554 88.6362L128.531 90.754L127.124 87.9694Z" fill="#FFB61D"/>
<path fill-rule="evenodd" clip-rule="evenodd" d="M139.5 110.821H136.685C136.452 110.821 136.286 111.049 136.358 111.271L137.303 114.209C137.392 114.487 137.764 114.534 137.921 114.288L139.79 111.35C139.936 111.121 139.771 110.821 139.5 110.821ZM139.27 111.394L137.86 114.104L136.914 111.165L139.27 111.394Z" fill="#FFB61D"/>
<path fill-rule="evenodd" clip-rule="evenodd" d="M130.278 126.744L130.149 129.291C130.135 129.558 130.418 129.738 130.654 129.612L133.927 127.869C134.204 127.721 134.154 127.31 133.85 127.232L130.706 126.428C130.496 126.374 130.288 126.527 130.278 126.744ZM130.526 126.987L133.533 127.405L130.654 129.107L130.526 126.987Z" fill="#FFB61D"/>
<path fill-rule="evenodd" clip-rule="evenodd" d="M125.939 95.4552L123.416 97.204C123.202 97.352 123.223 97.6741 123.455 97.7928L126.407 99.3085C126.654 99.4352 126.941 99.2327 126.905 98.9576L126.476 95.6931C126.442 95.4378 126.15 95.3085 125.939 95.4552ZM126.04 96.0628L126.564 99.0024L123.612 97.4867L126.04 96.0628Z" fill="#FFB61D"/>
<path fill-rule="evenodd" clip-rule="evenodd" d="M137.515 102.946L135.94 105.296C135.805 105.499 135.917 105.774 136.155 105.824L137.996 106.214C138.223 106.262 138.432 106.075 138.409 105.844L138.143 103.104C138.112 102.783 137.694 102.678 137.515 102.946ZM137.943 103.417V105.934L136.361 105.297L137.943 103.417Z" fill="#FFB61D"/>
<path fill-rule="evenodd" clip-rule="evenodd" d="M137.813 91.8731C138.271 91.5742 138.673 91.645 138.346 92.3027C138.346 92.3027 135.958 98.3569 135.245 98.4286C134.568 98.4967 134.241 97.6217 133.297 95.1201L133.257 95.0135C133.253 95.0041 133.25 94.9946 133.247 94.9853L133.242 94.9652L133.236 94.9541L133.223 94.9237L133.11 94.6181C132.977 94.2539 132.641 93.6527 132.463 93.4438C132.274 93.2213 132.696 93.0835 133.008 93.0835C133.59 93.0835 134.303 93.2461 135.423 92.9228C136.735 92.5441 137.185 92.2828 137.813 91.8731ZM136.797 94.9831L136.766 95.0035C136.433 95.2086 136.065 95.3664 135.662 95.4763C135.181 95.6078 134.483 95.6241 134.031 95.5256L133.956 95.5079L133.983 95.5773C134.238 96.2127 134.465 96.9473 134.663 97.3209L134.731 97.4481C134.855 97.6707 134.964 97.8323 135.052 97.9295L135.079 97.9581L135.114 97.9168C135.261 97.7286 135.785 97.0203 136.149 96.3128L136.187 96.2384C136.343 95.9327 136.513 95.5853 136.697 95.1962L136.797 94.9831ZM137.78 92.5724L137.725 92.6038C137.207 92.8923 136.35 93.3712 135.613 93.5837C134.732 93.8381 133.984 93.929 133.37 93.8476L133.332 93.8419L133.353 93.9028C133.412 94.0672 133.661 94.8454 133.749 94.965C134.106 95.2947 134.544 95.326 135.079 95.1963L135.156 95.1765C137.074 94.8059 137.78 92.5724 137.78 92.5724Z" fill="#FFB61D"/>
<path fill-rule="evenodd" clip-rule="evenodd" d="M205.143 113.738C205.22 113.681 205.327 113.698 205.384 113.774C205.781 114.313 206.453 114.339 207.347 113.843C207.43 113.797 207.535 113.827 207.581 113.91C207.627 113.993 207.597 114.097 207.514 114.144C206.486 114.715 205.625 114.681 205.107 113.978C205.05 113.902 205.067 113.794 205.143 113.738Z" fill="#E7EAEE"/>
<path fill-rule="evenodd" clip-rule="evenodd" d="M203.843 115.115C203.913 115.051 204.022 115.056 204.086 115.127C204.688 115.789 205.489 115.827 206.14 115.479C206.223 115.435 206.328 115.466 206.372 115.55C206.417 115.634 206.386 115.738 206.302 115.783C205.524 116.198 204.553 116.152 203.831 115.358C203.767 115.288 203.773 115.179 203.843 115.115Z" fill="#E7EAEE"/>
<path fill-rule="evenodd" clip-rule="evenodd" d="M202.434 116.48C202.504 116.415 202.613 116.419 202.678 116.488C203.258 117.104 204.438 117.406 205.246 116.978C205.33 116.934 205.434 116.965 205.478 117.049C205.523 117.133 205.491 117.237 205.407 117.282C204.451 117.789 203.107 117.445 202.427 116.724C202.362 116.654 202.365 116.545 202.434 116.48Z" fill="#E7EAEE"/>
<path fill-rule="evenodd" clip-rule="evenodd" d="M203.528 121.875C204.736 121.291 203.487 119.126 202.318 120.002C201.569 120.564 202.391 122.425 203.528 121.875Z" fill="#E7EAEE"/>
</svg>
