<svg width="328" height="180" viewBox="0 0 328 180" fill="none" xmlns="http://www.w3.org/2000/svg">
<path d="M0 16C0 7.16344 7.16344 0 16 0H312C320.837 0 328 7.16344 328 16V180H0V16Z" fill="#FFF2D9"/>
<path fill-rule="evenodd" clip-rule="evenodd" d="M99.5838 86.281C99.5838 86.281 93.2069 80.8336 102.153 62.0253C111.1 43.2169 129.217 47.3394 140.798 39.9414C157.91 29.0105 150.896 20.4562 172.232 19.0774C199.096 17.3413 200.618 45.3967 214.058 45.3967C214.942 45.3967 235.872 36.987 238.935 60.0089C240.478 71.6029 214.058 89.2831 214.058 89.2831C214.058 89.2831 203.063 99.2498 202.459 104.171C199.926 124.812 205.207 148.452 146.026 159.335C138.372 160.742 125.663 155.651 118.651 146.246C113.158 138.878 91.1227 144.106 89.0658 119.882C88.0291 107.673 99.5838 86.281 99.5838 86.281Z" fill="#EEE2CB"/>
<path d="M139.059 69.9167C139.259 69.7989 139.516 69.8653 139.634 70.0648L140.109 70.8662C141.995 74.0308 142.75 75.0584 143.552 75.523C144.211 75.9048 144.892 75.7863 146.139 75.0548L146.306 74.9547C147.09 74.4658 150.68 71.9998 152.068 71.1144C152.264 70.9897 152.523 71.0471 152.648 71.2425C152.772 71.4378 152.715 71.6972 152.52 71.8219L152.306 71.9594C150.759 72.962 147.285 75.3482 146.67 75.716C145.16 76.619 144.18 76.8219 143.199 76.2876L143.131 76.2491C142.077 75.6384 141.257 74.4668 138.911 70.4913C138.794 70.2917 138.86 70.0344 139.059 69.9167Z" fill="white"/>
<path d="M145.855 74.7665C146.084 74.7357 146.296 74.897 146.326 75.1267C146.469 76.194 146.811 77.2643 147.355 78.3387C147.459 78.5455 147.377 78.7979 147.17 78.9025C146.963 79.0071 146.711 78.9243 146.606 78.7175C146.021 77.5614 145.65 76.4012 145.494 75.238C145.464 75.0083 145.625 74.7972 145.855 74.7665Z" fill="white"/>
<path fill-rule="evenodd" clip-rule="evenodd" d="M194.738 100.395C194.67 100.566 194.522 100.803 194.349 101.028L194.498 101.182L194.67 101.365L194.708 101.402C194.725 101.417 194.738 101.426 194.748 101.428C194.803 101.436 194.842 101.488 194.835 101.544C194.827 101.598 194.776 101.638 194.72 101.63C194.669 101.629 194.486 101.557 194.268 101.38C194.229 101.348 194.189 101.311 194.149 101.27C194.023 101.411 193.896 101.531 193.786 101.606C193.625 101.718 193.485 101.727 193.418 101.682C193.352 101.638 193.289 101.49 193.396 101.191C193.413 101.137 193.47 101.109 193.524 101.126C193.577 101.142 193.606 101.199 193.59 101.253C193.573 101.309 193.571 101.359 193.571 101.4L193.633 101.358C193.655 101.342 193.677 101.324 193.698 101.303C193.773 101.23 193.857 101.14 193.941 101.043C193.808 100.888 193.672 100.706 193.562 100.497C193.508 100.394 193.466 100.286 193.425 100.172C193.397 100.108 193.426 100.033 193.49 100.005C193.554 99.9767 193.629 100.006 193.657 100.07C193.779 100.326 193.935 100.547 194.089 100.736L194.141 100.797C194.281 100.614 194.402 100.428 194.457 100.286C194.487 100.209 194.575 100.17 194.652 100.2C194.73 100.231 194.768 100.318 194.738 100.395Z" fill="white"/>
<path fill-rule="evenodd" clip-rule="evenodd" d="M132.304 47.4606L132.048 47.4143C130.62 47.1488 129.525 46.8228 127.479 46.1136C127.244 46.0322 127.12 45.7761 127.202 45.5415C127.283 45.307 127.539 45.1827 127.774 45.2641L128.283 45.4395C130.078 46.0519 131.085 46.3327 132.46 46.5751C137.087 47.391 140.551 45.0155 140.835 40.485C140.85 40.2372 141.064 40.0489 141.311 40.0644C141.559 40.0799 141.748 40.2933 141.732 40.5411C141.413 45.6363 137.434 48.3651 132.304 47.4606Z" fill="#00160A"/>
<path fill-rule="evenodd" clip-rule="evenodd" d="M143.865 52.3117L144.124 52.8854L144.712 53.0543C144.744 53.0635 144.762 53.0967 144.753 53.1285C144.75 53.1383 144.745 53.1472 144.738 53.1544L144.291 53.5996L144.316 54.2402C144.317 54.2732 144.291 54.3011 144.258 54.3024C144.247 54.3028 144.236 54.3001 144.226 54.2946L143.72 54.0063C143.704 53.9973 143.685 53.996 143.668 54.0027L143.127 54.2177C143.096 54.2299 143.061 54.2149 143.049 54.1841C143.045 54.1737 143.044 54.1624 143.046 54.1513L143.16 53.5205L142.779 53.0174C142.759 52.991 142.764 52.9535 142.79 52.9335C142.799 52.9273 142.808 52.9233 142.818 52.9219L143.424 52.8365L143.76 52.3044C143.778 52.2763 143.815 52.268 143.843 52.2856C143.853 52.2919 143.861 52.301 143.865 52.3117Z" fill="#00160A"/>
<path d="M203.003 37.8927C203.234 37.8762 203.435 38.0502 203.451 38.2814C203.468 38.5125 203.294 38.7133 203.063 38.7298C201.407 38.8479 200.107 39.4895 199.529 41.0767C199.494 41.1723 199.465 41.2645 199.442 41.3521L199.426 41.4123L199.452 41.3595C200.179 39.8743 201.582 38.8424 203.208 38.5805L203.314 38.5645C203.543 38.5325 203.755 38.6926 203.788 38.9221C203.82 39.1516 203.659 39.3636 203.43 39.3957C201.92 39.6065 200.628 40.6102 200.064 42.0498L200.028 42.1464C199.76 42.8822 199.117 43.2351 198.703 42.6054C198.451 42.2213 198.468 41.5392 198.74 40.7897C199.432 38.8886 201.02 38.0342 203.003 37.8927Z" fill="white"/>
<path d="M201.092 34.7663C201.323 34.7499 201.524 34.9239 201.54 35.155C201.557 35.3862 201.383 35.5869 201.151 35.6034C198.517 35.7913 196.208 37.5018 195.289 40.0266C195.017 40.7751 194.966 41.4149 195.063 41.739L195.075 41.7752L195.094 41.7484C195.141 41.6773 195.194 41.5753 195.245 41.4429L195.267 41.3844C196.238 38.7175 198.591 36.8498 201.352 36.4645C201.581 36.4325 201.793 36.5926 201.825 36.8221C201.857 37.0516 201.697 37.2636 201.468 37.2956C199.053 37.6327 196.989 39.2443 196.1 41.5534L196.056 41.6714C195.696 42.6603 194.918 43.0876 194.42 42.3303C194.079 41.8114 194.103 40.8318 194.5 39.7396C195.534 36.9009 198.131 34.9776 201.092 34.7663Z" fill="white"/>
<path d="M198.516 30.598C198.747 30.5815 198.948 30.7555 198.964 30.9866C198.981 31.2178 198.807 31.4186 198.576 31.435C194.819 31.703 191.525 34.1427 190.214 37.7438C189.768 38.9693 189.731 40.0081 189.975 40.4398L189.997 40.4763C190.033 40.5312 190.021 40.5328 190.03 40.5253L190.036 40.5216C190.159 40.4538 190.322 40.223 190.471 39.8402L190.501 39.7617C191.839 36.0836 195.085 33.5079 198.892 32.9765C199.121 32.9444 199.333 33.1045 199.366 33.334C199.398 33.5636 199.237 33.7756 199.008 33.8076C195.551 34.2901 192.598 36.6042 191.338 39.9174L191.289 40.0487C190.823 41.3282 189.889 41.8409 189.296 40.9372C188.853 40.2634 188.885 38.9423 189.426 37.4568C190.851 33.5418 194.432 30.8893 198.516 30.598Z" fill="white"/>
<path d="M193.918 26.6816C194.145 26.6371 194.366 26.7854 194.41 27.0128C194.455 27.2402 194.306 27.4607 194.079 27.5052C190.678 28.1712 187.943 30.7688 187.15 34.2046C186.882 35.3674 186.963 36.3129 187.226 36.6736L187.261 36.7188L187.264 36.7251L187.269 36.7213C187.363 36.6362 187.474 36.4187 187.559 36.0816L187.577 36.0075C188.393 32.4738 191.087 29.7386 194.528 28.82C194.752 28.7602 194.982 28.8933 195.042 29.1172C195.101 29.3411 194.968 29.571 194.744 29.6308C191.644 30.4584 189.208 32.8992 188.427 36.0622L188.395 36.1963C188.107 37.4426 187.281 38.0375 186.612 37.2486C186.122 36.6716 186.002 35.4472 186.332 34.0158C187.201 30.2545 190.195 27.4107 193.918 26.6816Z" fill="white"/>
<path d="M147.405 78.4315L147.647 78.3433C149.936 77.5218 151.868 77.1593 152.358 77.6585C152.789 78.0963 153.172 78.8892 153.536 80.0521C153.605 80.2733 153.482 80.5086 153.26 80.5777C153.039 80.6469 152.804 80.5236 152.735 80.3024C152.42 79.2967 152.1 78.6199 151.796 78.2853L151.784 78.2722L151.773 78.2727C151.715 78.261 151.629 78.2551 151.52 78.2572C151.278 78.2619 150.947 78.3045 150.553 78.3827C149.741 78.5436 148.714 78.8429 147.695 79.2188C145.991 79.8475 144.571 80.5861 143.787 81.2533C143.499 81.4982 142.973 80.8159 143.479 80.425C144.389 79.7217 145.77 79.0345 147.405 78.4315Z" fill="white"/>
<path d="M146.253 70.5047C146.253 71.9043 147.733 73.4197 148.048 73.5059C148.271 73.5671 144.42 76.0762 144.42 76.0762C143.029 76.2593 142.212 75.0832 142.212 73.331C142.212 73.0993 146.253 70.273 146.253 70.5047Z" fill="white"/>
<path fill-rule="evenodd" clip-rule="evenodd" d="M141.712 71.24C142.199 71.1452 142.531 70.7391 142.452 70.3329C142.373 69.9267 141.914 69.6742 141.426 69.7689C140.939 69.8637 140.607 70.2698 140.686 70.676C140.765 71.0822 141.225 71.3347 141.712 71.24Z" fill="#FFB61D"/>
<path d="M191.38 24.3549C191.608 24.3152 191.826 24.468 191.865 24.6963C191.905 24.9246 191.752 25.1419 191.524 25.1817C190.438 25.3708 189.343 26.028 188.214 27.0734C186.748 28.4308 185.78 30.3065 185.246 32.8073C184.816 34.8221 185.213 37.3397 186.337 39.553C187.617 42.071 189.879 42.6933 192.518 43.1752C195.226 43.6699 195.975 43.3644 198.534 42.4545L198.77 42.369C199.119 42.2364 200.755 41.5966 201.148 41.4777C201.976 41.2274 202.54 41.2484 202.949 41.6845C203.108 41.8535 203.099 42.119 202.93 42.2776C202.772 42.4263 202.529 42.4282 202.368 42.2886L202.337 42.2588C202.217 42.1301 201.967 42.1152 201.464 42.2593L201.391 42.2809C201.013 42.3953 199.239 43.0914 199.01 43.1752C196.245 44.1842 195.308 44.5379 192.367 44.0007C189.453 43.4685 186.98 42.6716 185.589 39.933C184.38 37.553 183.954 34.8403 184.426 32.6321C184.995 29.963 186.051 27.9332 187.644 26.4576C188.892 25.3026 190.134 24.5719 191.38 24.3549Z" fill="white"/>
<path d="M211.119 57.7421C208.727 57.6198 206.844 59.4672 206.824 61.9472C206.807 64.0366 207.984 65.7572 209.601 66.0906C210.255 66.2254 211.51 66.0632 212.441 65.5411C213.855 64.7829 214.935 63.2242 215.072 61.8961C215.294 59.7324 213.542 57.8659 211.119 57.7421Z" fill="white"/>
<path d="M167.774 57.3051C168.538 58.8483 169.724 62.4127 169.211 62.3955C167.786 62.3479 165.879 60.1572 164.545 57.1951L164.439 56.9569C163.275 54.2675 162.577 52.578 163.387 52.2543C164.225 51.9196 166.197 54.1201 167.774 57.3051Z" fill="white"/>
<path fill-rule="evenodd" clip-rule="evenodd" d="M163.387 52.2205C164.225 51.8858 166.226 53.9858 167.803 57.1708C168.567 58.714 169.085 60.1943 169.221 61.2559C169.221 61.2559 166.64 55.8189 165.066 53.8275C164.462 53.0625 163.387 52.2205 163.387 52.2205Z" fill="#E7EAEE"/>
<path d="M162.948 65.9139C163.009 65.6905 163.24 65.5592 163.464 65.6206C163.687 65.6821 163.818 65.913 163.757 66.1365C163.678 66.4239 162.566 67.1778 160.141 68.6727L158.611 69.6095C155.589 71.4491 153.572 72.6262 153.32 72.6262C151.652 72.6262 150.148 71.0522 149.051 68.5688C148.092 66.4003 147.595 63.8191 147.82 62.1276C147.89 61.5997 149.649 60.2331 152.365 58.4021L152.754 58.1414C155.156 56.5407 157.21 55.3536 157.953 55.2037C158.18 55.1579 158.401 55.3048 158.447 55.532C158.476 55.6741 151.853 61.2566 151.206 64.9618C150.768 67.4706 152.424 71.7466 153.246 71.7852L153.32 71.787C153.254 71.787 153.275 71.7714 153.283 71.767L153.358 71.728C153.414 71.6988 153.48 71.6631 153.557 71.6212L153.906 71.4259C154.039 71.3503 154.188 71.265 154.351 71.171L154.767 70.9291C155.562 70.4649 156.554 69.8739 157.566 69.2617L158.529 68.6766C159.699 67.9616 160.756 67.3023 161.551 66.7904L161.96 66.5244C162.214 66.3581 162.428 66.2142 162.599 66.0949L162.661 66.0513C162.756 65.9848 162.834 65.9275 162.896 65.8805C162.896 65.8805 162.965 65.8531 162.948 65.9139Z" fill="white"/>
<path fill-rule="evenodd" clip-rule="evenodd" d="M163.78 57.5396C162.766 55.2883 162.318 53.2253 162.657 51.976C162.044 52.171 161.277 52.5214 160.516 52.9581C159.504 53.5387 158.7 54.1876 158.682 54.3285C158.486 55.8011 159.237 58.6659 160.484 61.22C161.819 63.9519 163.407 65.7067 164.636 65.7067C164.753 65.7067 165.09 65.6372 165.428 65.5193C165.908 65.3516 166.358 65.1072 166.726 64.7871C166.909 64.6279 167.099 64.448 167.297 64.2472L167.536 64.0006C167.676 63.8517 167.822 63.6914 168.048 63.4375L168.364 63.0848L168.378 63.0699C166.797 62.4922 165.143 60.4557 163.906 57.8147L163.78 57.5396ZM157.85 54.218C157.98 53.2357 161.658 51.1124 163.336 50.975C163.407 50.9309 163.482 50.8927 163.562 50.8606C165.016 50.2798 167.23 52.7678 169.007 56.2686L169.129 56.5116C169.931 58.1312 170.478 59.694 170.627 60.8629C170.805 62.2598 170.401 63.1859 169.34 63.2334C169.312 63.3435 169.24 63.4355 169.145 63.491L169.128 63.4994L169.087 63.5408C169.045 63.5835 168.996 63.6365 168.921 63.7205L168.399 64.3025C168.21 64.511 168.076 64.6524 167.894 64.8366C167.682 65.0518 167.477 65.2462 167.276 65.4206C166.464 66.1263 165.263 66.5458 164.636 66.5458C164.303 66.5458 163.966 66.4684 163.629 66.3207C163.269 66.6965 162.16 67.4274 160.142 68.6719L158.611 69.6087C155.589 71.4483 153.573 72.6254 153.321 72.6254C152.749 72.6254 152.197 72.4408 151.674 72.0982C151.669 72.1016 151.664 72.1049 151.659 72.1081L151.446 72.2456C150.702 72.7276 149.513 73.5291 148.411 74.2726L148.41 74.2729L148.342 74.3191C148.485 75.3381 148.809 76.3598 149.317 77.3851C151.119 76.8278 152.546 76.6396 152.958 77.0587C153.389 77.4965 153.772 78.2894 154.136 79.4523C154.205 79.6735 154.081 79.9088 153.86 79.9779C153.639 80.0471 153.404 79.9238 153.335 79.7026C153.02 78.6969 152.699 78.0201 152.396 77.6855L152.384 77.6724L152.373 77.6729C152.315 77.6612 152.229 77.6553 152.119 77.6574C151.878 77.6621 151.547 77.7047 151.152 77.7829C150.34 77.9438 149.314 78.2431 148.295 78.619C145.965 79.4785 144.167 80.5434 143.797 81.3505C143.689 81.5867 143.703 81.9324 143.832 82.4617L143.856 82.557C143.876 82.632 143.896 82.7064 143.922 82.8004L144.074 83.3367L144.094 83.4143C144.153 83.6387 144.018 83.8677 143.794 83.9259C143.569 83.9841 143.34 83.8495 143.282 83.6252L143.208 83.3538L143.084 82.9159C143.069 82.8641 143.057 82.8162 143.044 82.7677C142.847 82.0096 142.816 81.4783 143.034 81.0011C143.405 80.192 144.564 79.3539 146.178 78.5919L145.826 77.6851L145.74 77.4558C145.607 77.0983 145.452 76.6136 145.357 76.2598C144.097 76.9393 143.219 77.0529 142.339 76.5738L142.27 76.5354C142.096 76.4346 141.929 76.3185 141.76 76.177L136.842 79.164C136.888 79.2625 136.934 79.3619 136.981 79.462C137.201 79.9352 136.812 80.2703 136.215 80.531L136.151 80.5584C135.638 80.7709 135.175 80.8196 134.899 80.5171C133.755 79.2619 132.545 76.2594 133.196 75.5727C133.321 75.4408 133.651 75.2445 134.276 74.917L134.326 74.8906C134.339 74.882 134.352 74.874 134.365 74.8666L138.962 72.3761C138.973 72.3703 138.984 72.3651 138.995 72.3604C138.711 71.8917 138.4 71.37 138.057 70.788C138.014 70.7204 137.993 70.6435 137.993 70.5665C137.992 70.4829 138.017 70.3994 138.066 70.3278C138.084 70.3011 138.105 70.2762 138.13 70.2539C139.075 69.3577 140.363 68.4232 141.978 67.4171L142.174 67.2957C142.873 66.8646 144.291 66.0558 145.496 65.3687L145.496 65.3687L145.496 65.3685C146.43 64.8356 147.236 64.376 147.479 64.2225L147.538 64.1835C147.625 64.1193 147.73 64.0941 147.83 64.105C147.75 63.3771 147.743 62.7008 147.82 62.1269C147.89 61.5989 149.649 60.2323 152.365 58.4013L152.754 58.1406C155.03 56.6241 156.993 55.4789 157.825 55.2351C157.803 54.8594 157.81 54.5172 157.85 54.218ZM157.917 56.086C157.102 56.384 155.061 57.5957 152.834 59.0971L152.477 59.339C151.475 60.0229 150.549 60.6897 149.85 61.2331L149.655 61.3855C149.343 61.6328 149.091 61.846 148.907 62.0169C148.816 62.1026 148.743 62.1759 148.692 62.2343L148.656 62.2764C148.649 62.2845 148.647 62.2814 148.649 62.255L148.652 62.2374C148.651 62.2441 148.65 62.25 148.649 62.255L148.638 62.345C148.235 65.8861 150.795 71.6691 153.246 71.7844L153.304 71.7858C153.309 71.7861 153.314 71.7862 153.321 71.7862L153.304 71.7858C153.258 71.7834 153.276 71.7702 153.283 71.7662L153.359 71.7272C153.414 71.698 153.481 71.6623 153.557 71.6204L153.906 71.4251C154.039 71.3495 154.188 71.2642 154.351 71.1702L154.767 70.9283C155.563 70.4641 156.555 69.8731 157.566 69.2609L158.529 68.6758C159.699 67.9608 160.756 67.3015 161.551 66.7896L161.96 66.5236C162.214 66.3573 162.428 66.2134 162.599 66.0941L162.661 66.0505C162.752 65.9867 162.828 65.9314 162.888 65.8855C161.807 65.0923 160.743 63.6275 159.798 61.7263L159.73 61.5883C158.82 59.7242 158.161 57.7056 157.917 56.086ZM147.946 64.9184C147.643 65.1089 146.75 65.6189 145.756 66.1864L145.756 66.1865C144.579 66.8589 143.26 67.612 142.614 68.01C141.089 68.9502 139.859 69.8217 138.946 70.6423L139.249 71.1524C140.572 73.3726 141.338 74.541 141.955 75.2011C141.75 74.7154 141.644 74.099 141.644 73.3259C141.644 73.2903 141.648 73.2557 141.656 73.2227C141.616 73.062 141.673 72.8856 141.815 72.7814L142.101 72.569C142.272 72.4394 142.554 72.2239 142.875 71.9789C143.577 71.4425 144.463 70.7649 144.78 70.5383C145.775 69.8255 146.508 69.4255 147.176 69.2867C147.495 69.2204 147.743 69.4091 147.815 69.7014L147.827 69.7546C147.843 69.8415 147.846 69.9271 147.846 70.1139L147.846 70.1731C147.842 70.8714 147.912 71.2743 148.207 71.7397C148.41 72.0583 148.707 72.3489 149.121 72.6091C149.165 72.6364 149.201 72.6702 149.231 72.7085C149.899 72.2597 150.525 71.8422 150.987 71.5428C150.259 70.8383 149.604 69.8185 149.051 68.568C148.536 67.4032 148.154 66.1194 147.946 64.9184ZM169.795 60.9691C169.659 59.9075 169.141 58.4272 168.377 56.884C166.8 53.699 164.711 51.3052 163.873 51.64C163.064 51.9636 163.275 54.2674 164.44 56.9568L164.545 57.195C165.879 60.1571 167.786 62.3478 169.211 62.3954C169.725 62.4126 169.925 61.9935 169.795 60.9691ZM139.428 73.0698C140.156 74.2466 140.688 75.0241 141.151 75.5649L136.489 78.3966C136.011 77.3497 135.584 76.3752 135.17 75.3853L139.362 73.1139C139.386 73.1011 139.408 73.0863 139.428 73.0698ZM148.512 77.6498C148.06 76.7142 147.747 75.7759 147.575 74.8356C146.973 75.241 146.449 75.5919 146.112 75.8109C146.169 76.1004 146.384 76.7875 146.569 77.2761L146.913 78.1625L146.946 78.2491C147.284 78.1063 147.638 77.9669 148.004 77.8317L148.247 77.7435C148.336 77.7116 148.424 77.6804 148.512 77.6498ZM148.497 73.2023C148.067 72.9044 147.738 72.5654 147.499 72.1898C147.113 71.5816 147.011 71.0623 147.007 70.2777L147.006 70.2074L146.947 70.2297C146.522 70.3948 146.014 70.6935 145.376 71.144L145.269 71.2205C144.965 71.4381 144.1 72.0986 143.403 72.6314L143.403 72.6316C143.015 72.9277 142.68 73.1844 142.52 73.3035L142.483 73.3312C142.484 74.7271 142.832 75.3676 143.48 75.6783L143.532 75.7022C143.687 75.7705 143.797 75.8049 144.112 75.8911C144.118 75.8929 144.124 75.8947 144.13 75.8967C144.457 75.7869 144.832 75.6034 145.279 75.341L145.446 75.241C145.815 75.0107 146.807 74.3421 147.897 73.6065L147.897 73.6064L147.897 73.6064L147.898 73.6062L148.497 73.2023ZM134.428 75.7864L134.492 75.9395C134.938 76.9962 135.401 78.0426 135.927 79.1839L136.131 79.6266C136.064 79.6717 135.976 79.7194 135.879 79.7618C135.74 79.8225 135.599 79.8652 135.492 79.8794L135.459 79.8828L135.408 79.8216C135.01 79.3326 134.549 78.5017 134.216 77.6754C134.039 77.2354 133.912 76.8317 133.855 76.5216C133.832 76.3952 133.821 76.2891 133.822 76.2086L133.825 76.1555C133.826 76.1426 133.826 76.1359 133.822 76.1349L133.835 76.1265C133.906 76.0775 134.087 75.9715 134.356 75.8252L134.428 75.7864ZM140.216 74.8623C140.054 74.6968 139.788 74.6943 139.623 74.8566C139.332 75.142 138.924 75.4078 138.212 75.8033L137.487 76.2055C137.296 76.3146 137.139 76.4086 136.997 76.5007C136.878 76.5777 136.772 76.652 136.677 76.7257C136.493 76.8674 136.46 77.1309 136.601 77.3142C136.743 77.4976 137.007 77.5314 137.19 77.3897C137.266 77.3312 137.353 77.2699 137.453 77.2048C137.546 77.1447 137.648 77.0823 137.766 77.0134L137.997 76.8812L138.733 76.4733C139.441 76.0762 139.867 75.7927 140.211 75.4556C140.376 75.2934 140.379 75.0277 140.216 74.8623Z" fill="#00160A"/>
<path d="M130.83 117.473C132.928 129.172 140.793 137.966 150.828 140.04C152.67 140.42 155.86 140.471 159.163 140.043C163.419 139.492 167.56 138.229 171.203 136.181C181.209 130.803 188.802 119.828 189.786 110.22C190.65 101.78 187.426 93.9839 181.589 88.4219C181.589 88.4219 163.254 97.4276 154.254 102.546C146.422 107.001 130.83 117.473 130.83 117.473Z" fill="white"/>
<path d="M173.53 82.5862C169.769 80.7307 165.058 79.2649 160.437 79.0286C143.491 78.1622 130.163 91.6997 130.024 109.161C130.024 109.161 148.938 97.1136 158.764 91.3012C163.652 88.4095 173.53 82.5862 173.53 82.5862Z" fill="white"/>
<path fill-rule="evenodd" clip-rule="evenodd" d="M208.386 73.6868C208.329 76.6041 205.242 81.4597 200.28 86.9544C196.685 90.9347 192.502 94.7822 188.995 97.3748L188.776 97.5346L188.921 98.1789C189.774 101.917 190.888 105.98 190.467 110.078C189.446 120.024 181.666 131.245 171.386 136.758C167.637 138.862 163.375 140.159 159.003 140.723L158.586 140.775C155.326 141.159 152.207 141.095 150.301 140.702C142.902 139.177 136.637 134.004 132.85 126.519C132.837 126.494 132.827 126.468 132.82 126.442C132.321 126.726 131.651 127.044 131.344 127.148L130.505 127.431C121.459 130.474 112.492 133.019 108.828 131.431C107.434 130.826 106.957 129.663 107.54 128.1C108.107 126.582 109.679 124.625 112.315 122.189L112.46 122.056C114.959 119.766 120.507 115.581 129.106 109.501L129.108 109.389C129.527 91.3732 143.521 77.6392 161.111 78.7603C166.492 79.1032 170.776 81.0152 172.916 82.1892L173.858 81.6842C182.685 76.9644 189.767 73.6467 195.171 71.661C204.058 68.3953 208.453 69.9221 208.386 73.6868ZM195.46 73.5962C185.523 77.2478 169.819 85.4604 147.953 98.6711L147.289 99.073C130.263 109.38 118.989 117.21 113.027 122.675L112.733 122.946L112.455 123.207C107.98 127.435 107.187 129.804 109.162 130.661C112.544 132.127 121.626 129.655 130.52 126.738L131.344 126.466C132.137 126.203 132.663 126.052 132.989 125.983C133.003 125.972 133.019 125.963 133.035 125.955C133.146 125.899 133.271 125.897 133.378 125.939C133.402 125.943 133.417 125.951 133.425 125.961C133.497 126 133.559 126.061 133.599 126.14C137.275 133.407 143.334 137.835 150.47 139.307C152.323 139.688 155.448 139.744 158.7 139.342L158.895 139.317C163.167 138.766 167.327 138.073 170.983 136.023C181.029 130.635 188.64 119.656 189.632 109.993C190.056 105.863 189.515 101.808 188.077 98.0352C187.958 98.1184 187.84 98.1997 187.723 98.2794C187.503 98.43 187.585 98.1861 187.971 97.5477C187.991 97.4644 188.037 97.3886 188.103 97.3316L188.222 97.1434C188.264 97.0779 188.307 97.0097 188.353 96.9387L188.85 96.5192C193.538 92.5548 197.14 89.1791 199.657 86.3921L199.944 86.0722C204.601 80.8606 207.496 76.2571 207.544 73.6713C207.596 70.8348 203.854 70.5117 195.46 73.5962ZM153.326 126.661C154.451 130.102 152.748 132.315 149.75 132.429C146.98 132.535 144.457 130.789 144.586 128.309C144.697 126.165 146.165 123.873 147.972 123.032C150.158 122.014 152.209 123.249 153.326 126.661ZM148.415 123.982C146.969 124.656 145.725 126.598 145.633 128.363C145.542 130.121 147.486 131.466 149.71 131.381C152.036 131.292 153.23 129.741 152.329 126.987C151.39 124.12 149.964 123.261 148.415 123.982ZM176.216 119.649C177.652 122.364 177.276 125.03 175.067 126.226L175.005 126.258L174.973 126.29C172.011 129.223 168.311 129.579 165.898 127.453L165.815 127.379C163.035 124.833 163.698 120.458 168.121 117.029C170.967 114.822 174.444 116.302 176.216 119.649ZM168.672 117.739C164.656 120.852 164.092 124.581 166.422 126.716C168.094 128.247 170.564 128.332 172.87 126.846L172.916 126.816L172.899 126.812C172.739 126.77 172.611 126.641 172.575 126.473L172.567 126.43C172.538 126.184 172.714 125.96 172.961 125.931C173.525 125.864 174.014 125.728 174.429 125.533L174.486 125.506L174.555 125.434C174.825 125.149 175.09 124.839 175.346 124.504L175.431 124.392C175.527 124.263 175.679 124.2 175.828 124.212L175.84 124.213L175.846 124.202C176.384 123.138 176.257 121.695 175.468 120.16L175.421 120.07C173.881 117.159 171.001 115.933 168.672 117.739ZM195.41 85.4735C195.179 86.2945 194.476 87.4211 193.398 88.7551C191.519 91.0808 188.696 93.7878 186.228 95.6388L186.776 95.0368C186.77 95.032 186.766 95.0256 186.762 95.0182L186.573 94.6713C185.338 92.4174 183.962 90.194 181.739 88.3816C175.984 90.7544 169.386 93.9978 163.374 97.3891L161.403 98.503C146.892 106.723 139.257 111.644 131.093 117.694C131.401 119.082 131.789 120.436 132.255 121.748C132.327 121.954 131.374 122.725 131.199 122.63C129.571 123.721 127.02 124.514 125.568 124.555C124.153 124.595 123.336 124.022 123.757 122.88C124.109 121.924 125.437 120.562 127.825 118.735L128.097 118.529L128.648 118.115C137.637 111.385 146.536 105.924 162.961 96.6582L163.649 96.2724C174.915 89.9839 187.961 84.3185 193.936 83.7957C195.164 83.6882 195.721 84.368 195.41 85.4735ZM130 118.508L128.117 119.93C126.437 121.204 125.225 122.146 124.571 122.75L124.523 122.795C123.724 123.544 124.628 123.742 125.545 123.716C126.933 123.677 129.06 122.624 130.86 121.666C130.527 120.635 130.24 119.581 130 118.508ZM159.459 113.952C159.684 114.009 159.82 114.238 159.763 114.462C159.706 114.687 159.477 114.823 159.253 114.766C158.124 114.479 157.458 114.589 157.242 114.893C157.098 115.095 157.178 115.438 157.446 115.658C157.656 115.829 157.935 115.911 158.127 115.869C158.294 115.833 158.387 115.704 158.387 115.382C158.387 115.15 158.575 114.962 158.807 114.962C159.039 114.962 159.227 115.15 159.227 115.382C159.227 116.083 158.876 116.565 158.305 116.689C157.846 116.789 157.312 116.632 156.915 116.307C156.328 115.827 156.136 114.999 156.558 114.406C157.02 113.757 158.033 113.59 159.459 113.952ZM141.028 112.412C141.675 112.606 141.953 113.103 142.041 113.848L142.05 113.929L142.061 114.052C142.062 114.072 142.064 114.093 142.065 114.116L142.087 114.541L142.094 114.637C142.097 114.68 142.101 114.714 142.105 114.745L142.116 114.809L142.123 114.837L142.135 114.847C142.264 114.974 142.299 115.173 142.215 115.337L142.194 115.374C142.068 115.569 141.808 115.625 141.614 115.5C141.346 115.327 141.285 115.149 141.252 114.638L141.226 114.139C141.222 114.094 141.219 114.055 141.215 114.011C141.167 113.522 141.048 113.294 140.787 113.216C140.054 112.996 139.633 113.22 139.5 113.71C139.381 114.147 139.553 114.606 139.854 114.733L139.93 114.761C140.126 114.845 140.231 115.067 140.164 115.274C140.094 115.495 139.858 115.617 139.637 115.547C138.838 115.292 138.458 114.343 138.69 113.49C138.949 112.538 139.849 112.059 141.028 112.412ZM171.3 105.987C172.462 107.62 172.246 109.699 170.382 110.639C170.175 110.744 169.923 110.661 169.818 110.454C169.714 110.247 169.797 109.995 170.004 109.89C171.354 109.209 171.508 107.726 170.616 106.473C169.75 105.256 168.545 105.122 167.717 106.437C166.839 107.832 166.902 108.651 167.535 109.019C168.037 109.312 168.845 109.25 169.067 109.011L169.088 108.985C169.223 108.796 169.485 108.752 169.674 108.886C169.862 109.021 169.907 109.283 169.772 109.471C169.306 110.127 167.975 110.247 167.112 109.744C166.008 109.1 165.902 107.745 167.007 105.99C168.189 104.112 170.119 104.326 171.3 105.987ZM153.904 103.581C154.122 103.581 154.301 103.747 154.321 103.96L154.323 104.001C154.323 104.074 154.392 104.157 154.638 104.338L154.871 104.505C155.125 104.69 155.248 104.805 155.363 104.988C155.628 105.406 155.778 105.832 155.778 106.333C155.778 107.615 153.851 109.359 151.748 110.136C149.228 111.066 147.162 110.376 146.6 107.789C146.551 107.563 146.695 107.339 146.921 107.29C147.148 107.241 147.371 107.385 147.42 107.611C147.857 109.619 149.362 110.122 151.458 109.348C153.267 108.68 154.939 107.167 154.939 106.333C154.939 106.01 154.84 105.731 154.654 105.436L154.629 105.401C154.586 105.347 154.519 105.289 154.399 105.199L154.122 105C153.662 104.661 153.484 104.432 153.484 104.001C153.484 103.769 153.672 103.581 153.904 103.581ZM155.873 80.3239L155.608 80.3537C141.29 82.0756 130.549 93.5277 129.963 108.896L131.499 107.815C135.909 104.719 141.027 101.184 146.854 97.2075L147.99 96.5213C151.38 94.4761 154.621 92.5515 157.715 90.746C157.658 90.6469 157.643 90.5254 157.681 90.4086C157.897 89.7482 158.097 89.3046 158.463 88.8601C159.61 87.4693 161.181 86.79 162.293 87.6633C162.403 87.7493 162.458 87.8789 162.454 88.0082L163.442 87.4441C166.555 85.6722 169.5 84.0357 172.28 82.5323L171.194 82.2234C169.584 81.7702 167.581 81.2327 165.586 80.8189C165.604 82.1467 164.61 83.207 162.959 83.9363C161.555 84.5563 159.726 84.8898 158.425 84.8123C155.992 84.6672 154.622 82.5331 155.873 80.3239ZM180.99 98.5461C182.017 101.352 181.169 103.902 178.606 103.886C174.953 103.862 171.385 100.672 171.962 97.815C172.219 96.5402 173.178 95.4126 174.844 94.8499C177.505 93.9512 179.945 95.6904 180.99 98.5461ZM175.113 95.6451C173.735 96.1102 172.984 96.9945 172.785 97.9811C172.327 100.249 175.433 103.026 178.611 103.047C180.432 103.059 181.058 101.173 180.202 98.8347C179.296 96.36 177.271 94.9162 175.113 95.6451ZM144.259 85.7118L144.289 85.7551L144.49 86.0763C144.589 86.2393 144.678 86.3993 144.762 86.5717C145.692 88.4718 145.668 90.9627 144.095 94.4203C143.382 95.9866 141.567 98.0917 139.983 99.3478C137.959 100.952 136.448 101.316 134.644 101.118L134.109 101.055L134.044 101.049C134.008 101.047 133.985 101.046 133.96 101.047L133.923 101.049C133.895 101.05 133.886 101.049 133.884 101.045L133.884 101.042L133.87 101.064C133.749 101.238 133.512 101.296 133.322 101.19C133.12 101.078 133.047 100.822 133.16 100.62C133.311 100.348 133.563 100.226 133.883 100.211C133.968 100.207 134.058 100.209 134.165 100.218L134.29 100.231L134.637 100.273C136.279 100.472 137.586 100.176 139.461 98.6902C140.95 97.5102 142.68 95.5034 143.331 94.0728C144.803 90.8372 144.824 88.6084 144.008 86.9404C143.954 86.8293 143.897 86.7239 143.836 86.6179L143.748 86.4711L143.572 86.1929C143.449 85.9965 143.509 85.7376 143.705 85.6145C143.889 85.4991 144.128 85.544 144.259 85.7118ZM194.009 84.6318C191.327 84.8665 187.122 86.1915 182.274 88.1625L182.416 88.2878C183.765 89.4983 186.487 92.3685 187.339 94.4159L188.187 93.4749C190.281 91.1457 191.801 89.3967 192.745 88.2278L192.937 87.9881C193.839 86.8424 194.423 85.8851 194.603 85.2464L194.628 85.1494C194.74 84.6883 194.61 84.5792 194.009 84.6318ZM153.832 85.9946C154.876 86.4995 155.3 87.6235 154.613 88.6426C154.483 88.8348 154.222 88.8855 154.03 88.756C153.838 88.6264 153.787 88.3657 153.917 88.1735C154.295 87.6129 154.082 87.0476 153.466 86.7501C152.818 86.4368 152.109 86.617 151.742 87.3009C151.405 87.931 151.381 88.7841 151.651 89.3429C151.888 89.8334 152.232 89.9273 152.757 89.5318C152.943 89.3924 153.206 89.4295 153.345 89.6146C153.484 89.7998 153.447 90.0629 153.262 90.2022C152.305 90.923 151.357 90.6644 150.895 89.7075C150.508 88.9054 150.539 87.7695 151.002 86.9045C151.594 85.8011 152.799 85.4952 153.832 85.9946ZM159.111 89.3938C158.915 89.6311 158.775 89.8816 158.646 90.203C159.727 89.5749 160.79 88.9611 161.835 88.3621L161.804 88.3443L161.775 88.3234C161.134 87.8206 160.005 88.309 159.111 89.3938ZM157.321 80.1955L156.955 80.2212L156.93 80.2522C155.479 82.0853 156.038 83.5732 158.019 83.7844C159.442 83.9362 163.218 82.8807 163.661 82.5103C164.093 82.1494 164.639 81.3196 164.723 80.6474C163.441 80.4064 162.187 80.2292 161.069 80.1721C159.926 80.1136 158.799 80.115 157.69 80.1738L157.321 80.1955Z" fill="#00160A"/>
<path d="M195.206 73.7003C204.093 70.4346 203.889 71.4035 195.495 74.488C185.558 78.1396 148.048 101.02 148.048 101.02C131.022 111.327 129.749 109.736 146.251 99.7067L147.269 99.0897C147.46 98.9737 166.249 87.1155 179.675 80.7714C181.185 80.0575 194.194 74.0721 195.206 73.7003Z" fill="white"/>
<path fill-rule="evenodd" clip-rule="evenodd" d="M210.55 57.4431C207.796 57.3023 205.647 59.4422 205.625 62.2421C205.606 64.5879 206.952 66.5798 208.88 66.9773C209.388 67.082 210.853 67.082 212.124 66.369L212.23 66.311C213.832 65.4035 214.922 63.6772 215.068 62.257C215.327 59.7392 213.304 57.5839 210.55 57.4431ZM206.224 62.2469L206.225 62.1927C206.242 62.1872 206.259 62.18 206.275 62.1712C208.434 61.0082 209.767 60.1219 210.299 59.4819C210.651 59.0594 210.822 58.5829 210.808 58.0651C211.171 58.1051 211.516 58.1847 211.84 58.2986C211.838 58.3141 211.838 58.33 211.838 58.3461C211.864 59.0913 211.666 59.687 211.243 60.1509C210.758 60.6839 210.17 61.1912 209.502 61.6696C208.787 62.181 208.019 62.6326 207.252 63.0192C207.073 63.1094 206.902 63.1917 206.743 63.2658L206.511 63.3709C206.478 63.3856 206.447 63.3991 206.419 63.4114L206.35 63.4404C206.265 63.0625 206.221 62.662 206.224 62.2469ZM206.518 64.0198C206.708 64.5462 206.983 65.0127 207.323 65.3926L207.502 65.2895C210.32 63.6583 212.069 62.377 212.731 61.473C213.4 60.559 213.639 59.8573 213.489 59.38C213.485 59.3688 213.483 59.3576 213.481 59.3463C213.186 59.0368 212.835 58.7706 212.439 58.5606C212.422 59.3527 212.172 60.0218 211.687 60.5544C211.171 61.1212 210.551 61.6556 209.85 62.157C209.108 62.688 208.315 63.1549 207.522 63.5546C207.29 63.6711 207.072 63.775 206.872 63.8659L206.638 63.9694L206.518 64.0198ZM208.762 66.33C208.408 66.2241 208.078 66.0505 207.781 65.8206C210.682 64.143 212.487 62.8211 213.214 61.8272C213.666 61.2105 213.955 60.6561 214.072 60.1613C214.218 60.4337 214.328 60.7242 214.399 61.0277C214.384 61.0586 214.374 61.0926 214.37 61.1288C214.297 61.8295 213.936 62.525 213.276 63.2176C212.642 63.8824 211.274 64.8415 209.184 66.0815L208.762 66.33ZM209.775 66.427C210.418 66.3861 211.205 66.1974 211.841 65.8408C213.024 65.2066 213.973 64.0123 214.332 62.8613C214.159 63.1212 213.951 63.3779 213.709 63.6313C213.059 64.3139 211.751 65.2419 209.775 66.427ZM206.399 61.4218L206.292 61.4798C206.632 59.4993 208.215 58.0781 210.207 58.037C210.228 58.4261 210.107 58.7752 209.838 59.0987C209.404 59.6215 208.25 60.4041 206.399 61.4218Z" fill="#00160A"/>
<path fill-rule="evenodd" clip-rule="evenodd" d="M232.188 51.7002C232.244 51.7066 232.283 51.7572 232.277 51.8127C232.276 51.8945 232.224 51.9387 232.153 51.9675C232.089 51.9931 231.987 51.9832 231.928 51.9913C231.279 52.0414 230.769 51.5638 230.544 50.9482C230.329 50.3569 230.386 49.6498 230.777 49.2137C230.822 49.1623 230.9 49.1571 230.952 49.2022C231.003 49.2472 231.295 49.3255 231.25 49.3769C230.928 49.7536 230.709 49.9822 231.014 50.8763C231.318 51.7705 232.146 51.6954 232.188 51.7002Z" fill="#E7EAEE"/>
<path fill-rule="evenodd" clip-rule="evenodd" d="M128.842 58.102C128.672 57.9848 128.439 58.0282 128.322 58.1988C128.204 58.3693 128.248 58.6025 128.418 58.7197C128.606 58.8483 128.771 58.967 128.917 59.0774C128.76 59.2026 128.603 59.3461 128.439 59.5094L128.108 59.8459C127.962 59.9929 127.963 60.2301 128.11 60.3758C128.257 60.5214 128.495 60.5204 128.64 60.3734L129.038 59.9716C129.2 59.8141 129.351 59.6823 129.504 59.5728C129.842 59.9087 129.946 60.155 129.951 60.3998L129.951 60.4625L129.953 60.5008C129.972 60.6898 130.132 60.8372 130.326 60.8372C130.533 60.8372 130.7 60.6695 130.7 60.4625L130.7 60.3889C130.693 60.0072 130.559 59.6442 130.196 59.2293C130.436 59.158 130.705 59.118 131.033 59.1009C131.239 59.0901 131.398 58.9139 131.387 58.7072C131.377 58.5006 131.2 58.3419 130.994 58.3527C130.425 58.3823 129.984 58.477 129.59 58.657C129.426 58.5228 129.24 58.3819 129.03 58.2328L128.842 58.102Z" fill="#00160A"/>
<path fill-rule="evenodd" clip-rule="evenodd" d="M184.978 140.194L185.238 140.196C186.691 140.209 187.826 140.34 189.963 140.683C190.209 140.722 190.375 140.953 190.336 141.198C190.297 141.443 190.066 141.61 189.821 141.571L189.12 141.461C187.352 141.189 186.332 141.093 184.978 141.093C180.28 141.093 177.281 144.034 177.788 148.545C177.816 148.792 177.638 149.015 177.392 149.042C177.145 149.07 176.922 148.893 176.895 148.646C176.324 143.573 179.769 140.194 184.978 140.194ZM188.617 142.01L188.573 141.971C188.531 141.935 188.466 141.94 188.43 141.982C188.393 142.025 188.399 142.089 188.441 142.126L188.486 142.164C188.529 142.2 188.592 142.195 188.629 142.153C188.665 142.11 188.661 142.046 188.617 142.01ZM180.47 142.95C180.309 142.82 180.073 142.846 179.944 143.007C179.42 143.658 179.039 144.293 178.801 144.912C178.57 145.515 178.491 146.527 178.551 147.975L178.565 148.28C178.576 148.487 178.752 148.645 178.959 148.635C179.166 148.624 179.324 148.447 179.313 148.241C179.234 146.729 179.302 145.699 179.5 145.181C179.709 144.639 180.051 144.071 180.528 143.477C180.657 143.315 180.632 143.079 180.47 142.95ZM184.559 141.71C184.743 141.615 184.969 141.687 185.064 141.871C185.159 142.054 185.088 142.28 184.904 142.376C184.143 142.77 183.562 143.43 183.157 144.373C182.722 145.384 182.366 146.286 182.09 147.079C182.021 147.274 181.808 147.377 181.612 147.309C181.417 147.241 181.314 147.027 181.382 146.832C181.665 146.021 182.027 145.103 182.468 144.077C182.939 142.982 183.637 142.188 184.559 141.71ZM186.737 141.691C186.601 141.535 186.364 141.519 186.208 141.656C185.583 142.204 185.103 142.702 184.766 143.154C184.433 143.603 184.042 144.274 183.589 145.171C183.496 145.356 183.57 145.581 183.755 145.674C183.94 145.768 184.165 145.693 184.258 145.509C184.693 144.646 185.064 144.009 185.368 143.601C185.668 143.197 186.114 142.735 186.702 142.219C186.858 142.083 186.874 141.846 186.737 141.691ZM185.369 145.922C185.214 146.058 184.977 146.042 184.841 145.887C184.704 145.731 184.72 145.494 184.876 145.358C185.464 144.842 185.909 144.381 186.21 143.976C186.514 143.568 186.885 142.931 187.32 142.069C187.413 141.884 187.638 141.81 187.823 141.903C188.008 141.996 188.082 142.221 187.989 142.406C187.536 143.304 187.145 143.975 186.811 144.423C186.475 144.875 185.995 145.374 185.369 145.922ZM182.533 142.016C182.363 141.898 182.129 141.941 182.012 142.111C181.174 143.324 180.639 144.23 180.403 144.846C180.165 145.464 180.002 146.297 179.906 147.349C179.888 147.555 180.04 147.738 180.246 147.756C180.452 147.775 180.634 147.623 180.653 147.417C180.742 146.427 180.893 145.658 181.102 145.115C181.297 144.608 181.751 143.826 182.46 142.783L182.628 142.537C182.746 142.367 182.703 142.133 182.533 142.016Z" fill="#00160A"/>
<path fill-rule="evenodd" clip-rule="evenodd" d="M175.421 139.807L175.679 140.381L176.267 140.549C176.299 140.559 176.317 140.592 176.308 140.624C176.305 140.633 176.3 140.642 176.293 140.65L175.846 141.095L175.871 141.735C175.872 141.768 175.846 141.796 175.813 141.798C175.802 141.798 175.791 141.795 175.781 141.79L175.275 141.501C175.259 141.492 175.24 141.491 175.223 141.498L174.682 141.713C174.651 141.725 174.616 141.71 174.604 141.679C174.6 141.669 174.599 141.657 174.601 141.646L174.715 141.016L174.334 140.513C174.314 140.486 174.319 140.449 174.346 140.429C174.354 140.422 174.363 140.418 174.373 140.417L174.98 140.332L175.315 139.799C175.333 139.771 175.37 139.763 175.398 139.781C175.408 139.787 175.416 139.796 175.421 139.807Z" fill="#00160A"/>
<path fill-rule="evenodd" clip-rule="evenodd" d="M196.268 59.4877C196.406 59.61 196.578 59.8304 196.73 60.0691L196.925 59.9822L197.156 59.8832C197.203 59.8619 197.233 59.8453 197.242 59.8318C197.269 59.7822 197.33 59.7633 197.38 59.7897C197.429 59.8159 197.449 59.8774 197.422 59.9269C197.404 59.974 197.274 60.1216 197.033 60.266C196.989 60.2922 196.941 60.3165 196.889 60.3403C196.978 60.5066 197.048 60.6673 197.081 60.7962C197.13 60.9863 197.091 61.1209 197.025 61.1683C196.961 61.2151 196.801 61.2238 196.557 61.0211C196.512 60.9869 196.505 60.9229 196.539 60.8785C196.573 60.8343 196.637 60.8261 196.682 60.8603C196.728 60.8945 196.775 60.914 196.813 60.928L196.794 60.8552C196.787 60.8293 196.778 60.8021 196.766 60.7757C196.722 60.68 196.666 60.5707 196.604 60.4585C196.413 60.5306 196.196 60.596 195.961 60.6275C195.847 60.6429 195.73 60.6458 195.609 60.6449C195.539 60.6494 195.479 60.5966 195.474 60.5268C195.47 60.4572 195.523 60.3968 195.592 60.3922C195.875 60.365 196.136 60.2937 196.366 60.2135L196.442 60.1863C196.317 59.9915 196.183 59.8145 196.069 59.7146C196.007 59.6597 196.001 59.5643 196.055 59.5017C196.111 59.4389 196.206 59.4327 196.268 59.4877Z" fill="#00160A"/>
<path fill-rule="evenodd" clip-rule="evenodd" d="M113.777 110.206C113.385 110.232 112.764 110.332 112.256 110.533C111.822 110.706 111.822 115.396 113.307 115.77C114.784 116.263 116.399 115.611 116.206 113.101C116.202 113.048 116.16 112.905 116.111 112.742C116.04 112.502 115.955 112.218 115.96 112.106C115.98 111.712 115.877 111.38 115.603 111.171C115.309 110.547 114.732 110.145 113.777 110.206ZM113.565 114.628C112.838 114.085 112.863 111.55 113.693 111.381C114.209 111.778 114.68 112.351 114.839 113.455C114.662 114.063 114.286 114.415 113.958 114.722C113.922 114.755 113.888 114.788 113.854 114.82C113.76 114.767 113.664 114.702 113.565 114.628Z" fill="white"/>
<path fill-rule="evenodd" clip-rule="evenodd" d="M112.682 113.152C112.616 112.757 112.661 112.316 112.859 111.845C112.949 111.631 113.186 111.457 113.481 111.34C113.827 111.204 114.25 111.136 114.517 111.119C115.166 111.077 115.559 111.349 115.759 111.771C115.945 111.912 116.015 112.137 116.002 112.403C115.996 112.53 116.163 112.988 116.169 113.076C116.299 114.773 115.2 115.215 114.195 114.882C113.813 115.076 113.445 115.108 113.168 114.902C112.919 114.718 112.728 114.33 112.685 113.646C112.673 113.47 112.672 113.305 112.682 113.152ZM114.464 112.033C113.888 112.147 113.864 113.811 114.367 114.166C114.436 114.214 114.503 114.256 114.568 114.291C114.811 114.072 114.993 113.894 115.095 113.531C115.198 113.168 114.822 112.293 114.464 112.033Z" fill="#FFB61D"/>
<path fill-rule="evenodd" clip-rule="evenodd" d="M152.029 154.721C151.858 154.604 151.625 154.647 151.508 154.818C151.391 154.988 151.434 155.222 151.605 155.339C151.792 155.467 151.958 155.586 152.104 155.697C151.946 155.822 151.789 155.965 151.626 156.129L151.295 156.465C151.149 156.612 151.15 156.849 151.297 156.995C151.444 157.141 151.681 157.14 151.827 156.993L152.224 156.591C152.386 156.433 152.538 156.301 152.69 156.192C153.029 156.528 153.132 156.774 153.138 157.019L153.138 157.082L153.14 157.12C153.159 157.309 153.318 157.456 153.512 157.456C153.719 157.456 153.887 157.289 153.887 157.082L153.887 157.008C153.88 156.626 153.745 156.263 153.383 155.848C153.622 155.777 153.892 155.737 154.219 155.72C154.426 155.709 154.585 155.533 154.574 155.326C154.563 155.12 154.387 154.961 154.18 154.972C153.612 155.001 153.17 155.096 152.777 155.276C152.613 155.142 152.427 155.001 152.216 154.852L152.029 154.721Z" fill="#00160A"/>
<path fill-rule="evenodd" clip-rule="evenodd" d="M152.029 154.721C151.858 154.604 151.625 154.647 151.508 154.818C151.391 154.988 151.434 155.222 151.605 155.339C151.792 155.467 151.958 155.586 152.104 155.697C151.946 155.822 151.789 155.965 151.626 156.129L151.295 156.465C151.149 156.612 151.15 156.849 151.297 156.995C151.444 157.141 151.681 157.14 151.827 156.993L152.224 156.591C152.386 156.433 152.538 156.301 152.69 156.192C153.029 156.528 153.132 156.774 153.138 157.019L153.138 157.082L153.14 157.12C153.159 157.309 153.318 157.456 153.512 157.456C153.719 157.456 153.887 157.289 153.887 157.082L153.887 157.008C153.88 156.626 153.745 156.263 153.383 155.848C153.622 155.777 153.892 155.737 154.219 155.72C154.426 155.709 154.585 155.533 154.574 155.326C154.563 155.12 154.387 154.961 154.18 154.972C153.612 155.001 153.17 155.096 152.777 155.276C152.613 155.142 152.427 155.001 152.216 154.852L152.029 154.721Z" fill="#00160A"/>
<path fill-rule="evenodd" clip-rule="evenodd" d="M164.833 144.457L165.091 145.031L165.68 145.2C165.712 145.209 165.73 145.242 165.721 145.274C165.718 145.284 165.713 145.293 165.706 145.3L165.258 145.745L165.283 146.386C165.285 146.419 165.259 146.447 165.226 146.448C165.215 146.448 165.204 146.446 165.194 146.44L164.688 146.152C164.672 146.143 164.653 146.141 164.636 146.148L164.095 146.363C164.064 146.375 164.029 146.36 164.017 146.33C164.013 146.319 164.011 146.308 164.013 146.297L164.127 145.666L163.747 145.163C163.727 145.137 163.732 145.099 163.758 145.079C163.766 145.073 163.776 145.069 163.786 145.067L164.392 144.982L164.728 144.45C164.745 144.422 164.782 144.413 164.81 144.431C164.82 144.437 164.828 144.446 164.833 144.457Z" fill="#00160A"/>
<path fill-rule="evenodd" clip-rule="evenodd" d="M132.354 140.516L132.793 140.967L133.404 140.924C133.437 140.922 133.465 140.947 133.468 140.98C133.468 140.99 133.467 141 133.462 141.009L133.194 141.581L133.437 142.174C133.449 142.205 133.435 142.24 133.404 142.252C133.394 142.256 133.382 142.258 133.371 142.256L132.797 142.158C132.779 142.155 132.761 142.16 132.747 142.172L132.312 142.559C132.287 142.581 132.249 142.579 132.227 142.555C132.22 142.546 132.215 142.536 132.213 142.525L132.104 141.893L131.574 141.551C131.547 141.533 131.539 141.496 131.557 141.468C131.562 141.459 131.57 141.452 131.579 141.447L132.119 141.16L132.253 140.545C132.26 140.513 132.292 140.492 132.324 140.499C132.335 140.502 132.346 140.507 132.354 140.516Z" fill="#00160A"/>
<path fill-rule="evenodd" clip-rule="evenodd" d="M125.502 99.4318L125.76 100.006L126.348 100.174C126.38 100.184 126.398 100.217 126.389 100.249C126.387 100.258 126.381 100.267 126.374 100.275L125.927 100.72L125.952 101.36C125.953 101.393 125.927 101.421 125.894 101.423C125.883 101.423 125.872 101.42 125.862 101.415L125.356 101.126C125.34 101.117 125.321 101.116 125.304 101.123L124.763 101.338C124.732 101.35 124.697 101.335 124.685 101.304C124.681 101.294 124.68 101.282 124.682 101.271L124.796 100.641L124.415 100.138C124.395 100.111 124.4 100.074 124.427 100.054C124.435 100.047 124.444 100.043 124.454 100.042L125.061 99.9567L125.396 99.4245C125.414 99.3965 125.451 99.3881 125.479 99.4057C125.489 99.412 125.497 99.4211 125.502 99.4318Z" fill="#00160A"/>
<path fill-rule="evenodd" clip-rule="evenodd" d="M125.441 100.003L125.551 100.247L125.801 100.319C125.814 100.323 125.822 100.337 125.818 100.35C125.817 100.354 125.815 100.358 125.812 100.361L125.622 100.55L125.633 100.822C125.633 100.836 125.622 100.848 125.608 100.849C125.603 100.849 125.599 100.848 125.595 100.846L125.38 100.723C125.373 100.719 125.365 100.719 125.358 100.722L125.128 100.813C125.115 100.818 125.1 100.812 125.095 100.799C125.093 100.794 125.092 100.789 125.093 100.785L125.142 100.517L124.98 100.303C124.971 100.292 124.973 100.276 124.985 100.267C124.988 100.265 124.992 100.263 124.997 100.262L125.254 100.226L125.397 100C125.404 99.9883 125.42 99.9847 125.432 99.9922C125.436 99.9949 125.439 99.9987 125.441 100.003Z" fill="#E7EAEE"/>
<path fill-rule="evenodd" clip-rule="evenodd" d="M94.8112 124.603L95.0693 125.176L95.6578 125.345C95.6897 125.354 95.708 125.388 95.6989 125.42C95.6961 125.429 95.6908 125.438 95.6836 125.445L95.2364 125.891L95.2615 126.531C95.2628 126.564 95.237 126.592 95.2039 126.593C95.1928 126.594 95.1817 126.591 95.1719 126.586L94.6657 126.297C94.6499 126.288 94.6309 126.287 94.6139 126.294L94.0725 126.509C94.0418 126.521 94.0069 126.506 93.9947 126.475C93.9906 126.465 93.9894 126.453 93.9914 126.442L94.1054 125.811L93.7246 125.308C93.7046 125.282 93.7098 125.244 93.7362 125.224C93.7443 125.218 93.7539 125.214 93.764 125.213L94.3703 125.128L94.7058 124.595C94.7234 124.567 94.7605 124.559 94.7885 124.577C94.7984 124.583 94.8063 124.592 94.8112 124.603Z" fill="#00160A"/>
<path fill-rule="evenodd" clip-rule="evenodd" d="M120.75 73.0873L120.937 73.2181C121.148 73.3674 121.933 74.1079 122.098 74.2423C122.491 74.062 122.932 73.9672 123.5 73.9375C123.707 73.9268 123.883 74.0855 123.894 74.2921C123.905 74.4988 123.746 74.675 123.54 74.6858C123.212 74.7029 122.942 74.7429 122.703 74.8143C123.066 75.2293 123.2 75.5921 123.207 75.9737L123.207 76.0473C123.207 76.2542 123.039 76.422 122.833 76.422C122.639 76.422 122.479 76.2745 122.46 76.0856L122.458 76.0473L122.458 75.9845C122.452 75.7398 122.349 75.4935 122.011 75.1578C121.858 75.2672 121.706 75.399 121.545 75.5565L121.147 75.9583C121.001 76.1053 120.764 76.1063 120.617 75.9607C120.47 75.815 120.469 75.5778 120.615 75.4308L120.946 75.0943C121.11 74.931 121.267 74.7875 121.424 74.6623C121.148 74.0312 120.112 73.3547 120.229 73.1841C120.346 73.0135 120.579 72.9702 120.75 73.0873Z" fill="#00160A"/>
<path fill-rule="evenodd" clip-rule="evenodd" d="M193.034 116.295L193.544 116.662L194.138 116.514C194.17 116.506 194.203 116.526 194.211 116.558C194.213 116.568 194.213 116.578 194.21 116.588L194.046 117.197L194.388 117.739C194.405 117.767 194.397 117.804 194.369 117.822C194.36 117.828 194.349 117.831 194.337 117.831L193.755 117.835C193.737 117.835 193.719 117.843 193.708 117.858L193.347 118.314C193.326 118.34 193.289 118.345 193.263 118.324C193.254 118.317 193.247 118.308 193.243 118.298L193.027 117.694L192.445 117.449C192.415 117.436 192.401 117.401 192.413 117.37C192.417 117.361 192.424 117.353 192.432 117.347L192.914 116.969L192.939 116.341C192.94 116.308 192.968 116.282 193.001 116.283C193.013 116.284 193.024 116.288 193.034 116.295Z" fill="#00160A"/>
<path fill-rule="evenodd" clip-rule="evenodd" d="M198.897 92.8138L199.051 93.4236L199.601 93.6921C199.631 93.7066 199.643 93.7425 199.629 93.7723C199.624 93.7815 199.618 93.7893 199.609 93.7952L199.092 94.1559L199.005 94.7911C199.001 94.8239 198.97 94.8469 198.938 94.8424C198.927 94.8409 198.916 94.8363 198.907 94.8292L198.459 94.4573C198.445 94.4457 198.426 94.4411 198.409 94.4448L197.838 94.5625C197.806 94.5692 197.774 94.5484 197.767 94.5159C197.765 94.505 197.766 94.4936 197.77 94.4831L197.992 93.8816L197.704 93.3201C197.689 93.2906 197.7 93.2545 197.73 93.2394C197.739 93.2347 197.749 93.2325 197.759 93.2328L198.371 93.2541L198.794 92.7882C198.816 92.7637 198.854 92.7619 198.879 92.7841C198.887 92.792 198.894 92.8023 198.897 92.8138Z" fill="#00160A"/>
<path fill-rule="evenodd" clip-rule="evenodd" d="M185.544 68.2718L185.699 68.8816L186.249 69.1501C186.279 69.1647 186.291 69.2005 186.277 69.2303C186.272 69.2395 186.266 69.2473 186.257 69.2532L185.74 69.6139L185.653 70.2491C185.649 70.2819 185.618 70.3049 185.586 70.3004C185.575 70.2989 185.564 70.2943 185.555 70.2872L185.107 69.9153C185.093 69.9037 185.074 69.8991 185.057 69.9028L184.486 70.0205C184.454 70.0272 184.422 70.0064 184.415 69.974C184.413 69.963 184.414 69.9516 184.418 69.9411L184.64 69.3396L184.352 68.7781C184.337 68.7486 184.348 68.7125 184.378 68.6974C184.387 68.6928 184.397 68.6905 184.407 68.6909L185.019 68.7121L185.442 68.2462C185.464 68.2217 185.502 68.2199 185.527 68.2421C185.535 68.25 185.542 68.2604 185.544 68.2718Z" fill="#00160A"/>
<path fill-rule="evenodd" clip-rule="evenodd" d="M224.99 74.2463L225.218 74.226C225.475 74.2051 225.709 74.1934 225.921 74.1908C226.106 73.8001 226.383 73.4437 226.8 73.0557C226.951 72.9146 227.188 72.9229 227.329 73.0743C227.47 73.2256 227.462 73.4627 227.311 73.6038C227.071 73.8273 226.89 74.0314 226.752 74.2401C227.297 74.3247 227.633 74.5162 227.884 74.804L227.931 74.8604C228.064 75.0189 228.043 75.2552 227.885 75.3882C227.736 75.5129 227.519 75.5025 227.383 75.3701L227.357 75.342L227.317 75.2939C227.155 75.11 226.918 74.9876 226.443 74.9481C226.396 75.13 226.365 75.3284 226.342 75.5531L226.296 76.1164C226.279 76.3226 226.098 76.4759 225.891 76.4588C225.685 76.4416 225.532 76.2606 225.549 76.0544L225.587 75.5837C225.607 75.3535 225.635 75.1426 225.675 74.9454C225.492 74.9548 225.289 74.9702 225.063 74.9921C224.857 75.0121 224.674 74.8613 224.654 74.6553C224.634 74.4494 224.784 74.2663 224.99 74.2463Z" fill="#00160A"/>
<path fill-rule="evenodd" clip-rule="evenodd" d="M194.738 100.108C194.67 100.279 194.522 100.516 194.349 100.741L194.498 100.895L194.67 101.078L194.708 101.115C194.725 101.13 194.738 101.139 194.748 101.141C194.803 101.149 194.842 101.2 194.835 101.257C194.827 101.311 194.776 101.351 194.72 101.343C194.669 101.342 194.486 101.27 194.268 101.093C194.229 101.061 194.189 101.024 194.149 100.983C194.023 101.124 193.896 101.244 193.786 101.319C193.625 101.431 193.485 101.44 193.418 101.395C193.352 101.351 193.289 101.203 193.396 100.904C193.413 100.85 193.47 100.822 193.524 100.838C193.577 100.855 193.606 100.912 193.59 100.966C193.573 101.022 193.571 101.072 193.571 101.113L193.633 101.07C193.655 101.055 193.677 101.037 193.698 101.016C193.773 100.943 193.857 100.853 193.941 100.756C193.808 100.601 193.672 100.419 193.562 100.21C193.508 100.107 193.466 99.9988 193.425 99.8846C193.397 99.8208 193.426 99.746 193.49 99.7178C193.554 99.6896 193.629 99.7188 193.657 99.7825C193.779 100.039 193.935 100.259 194.089 100.448L194.141 100.51C194.281 100.326 194.402 100.14 194.457 99.9987C194.487 99.9216 194.575 99.8831 194.652 99.9127C194.73 99.9435 194.768 100.031 194.738 100.108Z" fill="#E7EAEE"/>
<path fill-rule="evenodd" clip-rule="evenodd" d="M191.08 23.7543C191.309 23.7146 191.526 23.8674 191.566 24.0957C191.606 24.324 191.453 24.5413 191.224 24.5811C190.139 24.7702 188.832 25.4193 187.703 26.4646C186.237 27.822 185.156 29.7379 184.622 32.2387C184.192 34.2536 184.587 36.9063 185.711 39.1196C186.99 41.6376 189.046 43.3496 191.685 43.8315C194.393 44.3262 196.685 44.0189 199.244 43.1091L199.48 43.0235C199.554 42.9952 199.687 42.9438 199.855 42.8793L199.855 42.879L199.855 42.879L199.856 42.8789L199.856 42.8787C200.473 42.6409 201.549 42.2257 201.858 42.1322C202.685 41.882 203.25 41.9029 203.659 42.3391C203.818 42.508 203.809 42.7736 203.64 42.9322C203.482 43.0808 203.238 43.0827 203.078 42.9431L203.047 42.9133C202.926 42.7847 202.677 42.7698 202.174 42.9138L202.101 42.9355C201.828 43.0179 200.831 43.4023 200.21 43.6421L200.209 43.6422L200.209 43.6423L200.209 43.6424C199.968 43.7353 199.783 43.8063 199.719 43.8297C196.955 44.8388 194.475 45.1941 191.534 44.657C188.62 44.1247 186.354 42.2382 184.963 39.4996C183.754 37.1196 183.33 34.2718 183.801 32.0635C184.371 29.3944 185.539 27.3245 187.133 25.8489C188.38 24.6938 189.835 23.9713 191.08 23.7543ZM193.918 25.7814C194.146 25.7369 194.366 25.8852 194.411 26.1126C194.455 26.34 194.307 26.5605 194.08 26.605C190.679 27.271 187.944 29.8686 187.151 33.3044C186.882 34.4672 186.963 35.4127 187.227 35.7734L187.262 35.8186L187.264 35.8249L187.269 35.8211C187.364 35.736 187.474 35.5185 187.56 35.1814L187.577 35.1073C188.393 31.5736 191.087 28.8384 194.528 27.9198C194.752 27.86 194.982 27.9931 195.042 28.217C195.102 28.4409 194.969 28.6708 194.745 28.7306C191.645 29.5582 189.209 31.999 188.427 35.162L188.395 35.2961C188.107 36.5424 187.281 37.1373 186.612 36.3484C186.123 35.7714 186.002 34.547 186.333 33.1156C187.201 29.3543 190.195 26.5105 193.918 25.7814ZM198.965 30.3869C198.948 30.1558 198.747 29.9817 198.516 29.9982C194.432 30.2896 190.851 32.9421 189.426 36.857C188.885 38.3426 188.853 39.6637 189.296 40.3374C189.89 41.2411 190.824 40.7285 191.289 39.4489L191.338 39.3176C192.598 36.0044 195.551 33.6904 199.008 33.2079C199.238 33.1758 199.398 32.9638 199.366 32.7343C199.334 32.5048 199.122 32.3447 198.892 32.3767C195.085 32.9081 191.839 35.4839 190.501 39.1619L190.471 39.2405C190.322 39.6233 190.159 39.8541 190.036 39.9218L190.03 39.9255L190.028 39.9274C190.027 39.9283 190.027 39.9288 190.026 39.9288C190.026 39.9287 190.025 39.9275 190.024 39.9247C190.021 39.9185 190.015 39.9044 189.997 39.8766L189.975 39.8401C189.731 39.4083 189.769 38.3696 190.215 37.1441C191.525 33.543 194.819 31.1033 198.576 30.8353C198.807 30.8188 198.981 30.6181 198.965 30.3869ZM200.792 34.4661C201.023 34.4496 201.224 34.6236 201.241 34.8547C201.257 35.0859 201.083 35.2866 200.852 35.3031C198.218 35.491 195.909 37.2015 194.99 39.7263C194.717 40.4748 194.666 41.1147 194.764 41.4387L194.776 41.4749L194.795 41.4481C194.841 41.3771 194.894 41.275 194.946 41.1426L194.968 41.0841C195.939 38.4172 198.292 36.5495 201.052 36.1642C201.282 36.1322 201.494 36.2923 201.526 36.5218C201.558 36.7513 201.398 36.9633 201.168 36.9954C198.754 37.3324 196.69 38.944 195.801 41.2531L195.757 41.3711C195.397 42.36 194.618 42.7873 194.121 42.03C193.78 41.5111 193.803 40.5315 194.201 39.4393C195.234 36.6006 197.831 34.6773 200.792 34.4661ZM203.004 37.8468C202.987 37.6156 202.786 37.4416 202.555 37.4581C200.572 37.5996 198.833 38.8876 198.141 40.7887C197.868 41.5382 197.852 42.2203 198.104 42.6044C198.518 43.2341 199.161 42.8813 199.428 42.1455L199.465 42.0489C200.029 40.6092 201.32 39.6055 202.831 39.3947C203.06 39.3627 203.22 39.1506 203.188 38.9211C203.156 38.6916 202.944 38.5315 202.715 38.5636L202.608 38.5795C200.983 38.8414 199.58 39.8734 198.852 41.3585L198.827 41.4114L198.843 41.3511C198.866 41.2635 198.895 41.1713 198.93 41.0757C199.507 39.4885 200.959 38.4133 202.615 38.2951C202.846 38.2787 203.02 38.0779 203.004 37.8468Z" fill="#00160A"/>
<path fill-rule="evenodd" clip-rule="evenodd" d="M200.792 34.4665C201.023 34.4501 201.224 34.6241 201.24 34.8552C201.257 35.0864 201.083 35.2871 200.852 35.3036C198.218 35.4915 195.908 37.202 194.989 39.7268C194.717 40.4752 194.666 41.1151 194.764 41.4392L194.776 41.4754L194.794 41.4486C194.841 41.3775 194.894 41.2755 194.945 41.1431L194.968 41.0846C195.938 38.4177 198.292 36.55 201.052 36.1647C201.282 36.1327 201.494 36.2928 201.526 36.5223C201.558 36.7518 201.398 36.9638 201.168 36.9958C198.753 37.3329 196.689 38.9445 195.8 41.2536L195.756 41.3716C195.396 42.3605 194.618 42.7878 194.12 42.0305C193.779 41.5116 193.803 40.532 194.201 39.4398C195.234 36.6011 197.831 34.6778 200.792 34.4665Z" fill="#00160A"/>
<path d="M174.66 89.0973C183.457 84.9826 190.811 82.8092 195.39 82.4101C196.793 82.2879 197.429 83.061 197.074 84.3185C196.81 85.2522 196.007 86.5335 194.776 88.0509C192.631 90.6961 189.801 92.9596 186.984 95.0649C191.491 90.9049 192.641 89.1647 194.031 87.451L194.249 87.1784C195.28 85.8753 195.946 84.7864 196.151 84.06L196.18 83.9497C196.308 83.4252 196.16 83.3011 195.474 83.361C190.998 83.751 183.672 85.9287 174.907 90.0378C166.128 94.1536 165.877 93.2053 174.66 89.0973Z" fill="white"/>
<path d="M134.428 75.7871L134.492 75.9402C134.938 76.9969 135.401 78.0433 135.927 79.1846L136.131 79.6274C136.064 79.6724 135.976 79.7202 135.879 79.7625C135.74 79.8232 135.599 79.8659 135.492 79.8802L135.459 79.8836L135.407 79.8223C135.01 79.3333 134.549 78.5024 134.216 77.6762C134.039 77.2361 133.912 76.8324 133.855 76.5223C133.832 76.3959 133.821 76.2898 133.822 76.2093L133.825 76.1562C133.826 76.1433 133.826 76.1366 133.822 76.1357L133.835 76.1272C133.906 76.0782 134.087 75.9722 134.356 75.8259L134.428 75.7871Z" fill="white"/>
<path fill-rule="evenodd" clip-rule="evenodd" d="M145.548 71.9584C145.823 71.6213 146.18 71.6716 146.633 71.9459L146.749 72.0192L147.074 72.2346C147.165 72.2929 147.204 72.313 147.257 72.3342C147.38 72.3831 147.44 72.5226 147.391 72.6456C147.342 72.7686 147.203 72.8287 147.08 72.7797L147.036 72.7616C146.953 72.726 146.89 72.689 146.722 72.5773L146.488 72.4219C146.45 72.3968 146.417 72.3757 146.384 72.3559C146.113 72.1918 145.991 72.1745 145.919 72.2618C145.874 72.3167 145.886 72.4339 145.975 72.6741L146.073 72.9261C146.267 73.4423 146.268 73.6731 145.922 73.8702C145.624 74.0398 145.471 73.9605 145.042 73.5409L144.938 73.4379C144.664 73.164 144.52 73.0687 144.428 73.0883C144.397 73.0948 144.361 73.1166 144.317 73.1633C144.266 73.218 144.251 73.3932 144.283 73.704L144.331 74.1098C144.387 74.6059 144.365 74.7345 144.16 74.8715C143.878 75.0603 143.503 74.8469 142.807 74.2223C142.709 74.1338 142.7 73.9822 142.789 73.8837C142.877 73.7852 143.029 73.777 143.128 73.8655C143.425 74.1326 143.649 74.3065 143.806 74.3956L143.841 74.4147L143.871 74.4294L143.871 74.3994L143.87 74.3275C143.866 74.2687 143.859 74.1975 143.844 74.0767L143.814 73.8277C143.756 73.3226 143.774 73.0417 143.967 72.8352C144.075 72.7205 144.196 72.6472 144.328 72.6191C144.636 72.554 144.855 72.6855 145.219 73.0407L145.402 73.2211C145.6 73.4113 145.673 73.4599 145.685 73.4533C145.73 73.4278 145.723 73.3483 145.601 73.0364L145.548 72.9013C145.379 72.4659 145.346 72.2052 145.548 71.9584Z" fill="#00160A"/>
<path fill-rule="evenodd" clip-rule="evenodd" d="M171.725 32.933L171.497 32.9534C171.291 32.9733 171.14 33.1564 171.16 33.3623C171.172 33.4868 171.244 33.5911 171.344 33.6498L171.304 33.6779C171.135 33.7973 171.095 34.0311 171.215 34.2001C171.334 34.369 171.568 34.4092 171.737 34.2898L172.122 34.0171C172.111 34.1053 172.101 34.1964 172.093 34.2907L172.055 34.7614C172.038 34.9676 172.191 35.1487 172.398 35.1658C172.604 35.1829 172.785 35.0296 172.802 34.8234L172.848 34.2601C172.86 34.1396 172.875 34.0266 172.893 33.9197C173.025 34.1692 173.051 34.3614 173.023 34.5432L173.012 34.6051L173.008 34.6431C172.994 34.8325 173.125 35.0054 173.316 35.0391C173.52 35.075 173.714 34.9389 173.75 34.7352L173.763 34.6626C173.803 34.4098 173.785 34.1553 173.682 33.8728C173.736 33.9113 173.782 33.9541 173.823 34.0009L173.863 34.049L173.89 34.0771C174.026 34.2095 174.243 34.2199 174.391 34.0952C174.55 33.9622 174.57 33.7259 174.437 33.5674L174.39 33.511C174.373 33.4917 174.356 33.4727 174.338 33.4543C174.534 33.4657 174.707 33.3232 174.732 33.1259C174.757 32.9206 174.611 32.7336 174.405 32.7084C174.052 32.665 173.743 32.6552 173.459 32.6807C173.561 32.5608 173.679 32.439 173.817 32.3108C173.968 32.1697 173.977 31.9326 173.835 31.7813C173.694 31.6299 173.457 31.6216 173.306 31.7627C173.052 31.9994 172.85 32.2243 172.689 32.4524C172.626 32.3864 172.561 32.3187 172.492 32.2492L172.33 32.0878C172.183 31.9429 171.946 31.945 171.801 32.0927C171.656 32.2403 171.658 32.4775 171.806 32.6225C171.908 32.7232 172.003 32.8184 172.09 32.9087C171.974 32.9146 171.852 32.9227 171.725 32.933Z" fill="#00160A"/>
<path fill-rule="evenodd" clip-rule="evenodd" d="M157.286 35.5282C157.196 35.436 157.051 35.4386 156.961 35.5339C156.871 35.6293 156.871 35.7814 156.961 35.8736C157.046 35.961 157.123 36.0421 157.191 36.1175C157.047 36.1786 156.902 36.2577 156.747 36.3554L156.512 36.5061C156.409 36.5718 156.387 36.7033 156.462 36.7997C156.537 36.8962 156.682 36.9211 156.785 36.8554L157.067 36.6757C157.214 36.5855 157.347 36.5173 157.48 36.4695C157.683 36.7511 157.725 36.9316 157.699 37.099L157.692 37.1387L157.689 37.1631C157.68 37.2846 157.759 37.3948 157.877 37.4154C158.001 37.4374 158.121 37.3492 158.145 37.2184L158.153 37.1718C158.191 36.9291 158.15 36.6845 157.976 36.3825C158.094 36.3806 158.223 36.3894 158.368 36.408C158.496 36.4243 158.61 36.3437 158.623 36.2282C158.637 36.1126 158.545 36.0057 158.418 35.9895C158.139 35.9539 157.906 35.9498 157.692 35.9787C157.604 35.8706 157.502 35.7551 157.385 35.6309L157.286 35.5282Z" fill="#E7EAEE"/>
<path fill-rule="evenodd" clip-rule="evenodd" d="M109.006 97.9846L109.264 98.5583L109.853 98.7272C109.884 98.7363 109.903 98.7695 109.894 98.8013C109.891 98.8112 109.886 98.8201 109.878 98.8273L109.431 99.2724L109.456 99.913C109.458 99.9461 109.432 99.9739 109.399 99.9752C109.388 99.9757 109.376 99.973 109.367 99.9674L108.861 99.6791C108.845 99.6701 108.826 99.6688 108.809 99.6755L108.267 99.8906C108.237 99.9028 108.202 99.8877 108.19 99.857C108.185 99.8466 108.184 99.8352 108.186 99.8242L108.3 99.1933L107.919 98.6903C107.899 98.6639 107.905 98.6263 107.931 98.6063C107.939 98.6002 107.949 98.5962 107.959 98.5948L108.565 98.5094L108.901 97.9772C108.918 97.9492 108.955 97.9408 108.983 97.9585C108.993 97.9647 109.001 97.9738 109.006 97.9846Z" fill="#00160A"/>
<path fill-rule="evenodd" clip-rule="evenodd" d="M112.448 66.1428L112.707 66.7165L113.295 66.8854C113.327 66.8945 113.345 66.9277 113.336 66.9595C113.333 66.9694 113.328 66.9783 113.321 66.9855L112.874 67.4306L112.899 68.0712C112.9 68.1043 112.874 68.1322 112.841 68.1334C112.83 68.1339 112.819 68.1312 112.809 68.1256L112.303 67.8373C112.287 67.8283 112.268 67.827 112.251 67.8337L111.71 68.0488C111.679 68.061 111.644 68.0459 111.632 68.0152C111.628 68.0048 111.627 67.9934 111.629 67.9824L111.743 67.3515L111.362 66.8485C111.342 66.8221 111.347 66.7845 111.373 66.7645C111.382 66.7584 111.391 66.7544 111.401 66.753L112.007 66.6676L112.343 66.1354C112.361 66.1074 112.398 66.099 112.426 66.1167C112.436 66.1229 112.444 66.132 112.448 66.1428Z" fill="#00160A"/>
<path d="M120.246 116.839C120.439 116.699 120.708 116.742 120.847 116.934C120.987 117.127 114.899 122.085 112.538 124.357L112.263 124.624C110.914 125.944 109.92 127.086 109.359 127.99C108.765 128.947 108.727 129.467 109.11 129.68C110.565 130.486 112.658 130.879 115.654 130.383L115.962 130.33C117.102 130.13 125.681 128.259 125.545 128.309L125.493 128.325C125.222 128.397 121.729 129.605 120.523 129.912L120.377 129.948C118.534 130.412 117.092 130.73 115.794 130.945C112.624 131.47 110.358 131.355 108.693 130.433C107.732 129.9 107.809 128.856 108.628 127.536C109.272 126.498 110.405 125.215 111.941 123.737C114.334 121.435 117.7 118.688 120.246 116.839Z" fill="white"/>
</svg>
