<svg width="328" height="180" viewBox="0 0 328 180" fill="none" xmlns="http://www.w3.org/2000/svg">
<path d="M0 16C0 7.16344 7.16344 0 16 0H312C320.837 0 328 7.16344 328 16V180H0V16Z" fill="#E0D8FC"/>
<path fill-rule="evenodd" clip-rule="evenodd" d="M225.609 40.5233C197.137 24.1929 174.937 72.1284 158.813 78.163C126.317 90.3247 65.9581 100.902 77.4691 124.546C93.2745 157.011 148.268 160.251 187.596 157.011C238.748 152.798 281.587 72.6304 225.609 40.5233Z" fill="#C5B5FF"/>
<path fill-rule="evenodd" clip-rule="evenodd" d="M221.48 92.8484C221.773 93.1071 221.873 93.512 221.946 93.8997L222.392 96.3321C222.454 96.6704 222.738 96.8305 222.848 96.638C222.964 96.4341 223.273 96.5187 223.48 96.6289L226.065 98.004C225.186 98.6351 224.148 99.044 223.074 99.1826C222.544 99.2509 222.459 99.9756 222.515 100.506L222.668 101.95C222.716 102.399 222.008 102.552 221.654 102.27C221.301 101.988 221.167 101.515 220.888 101.159C220.438 100.583 219.642 100.369 218.914 100.435C218.187 100.502 217.505 100.807 216.839 101.108C216.409 101.302 215.937 100.788 215.97 100.318C216 99.9038 216.265 99.5563 216.536 99.2328L216.644 99.1046C216.947 98.7443 217.251 98.3173 217.2 97.8491C217.157 97.4592 216.878 97.1452 216.599 96.8647L216.435 96.7008C216.176 96.4362 215.931 96.1421 215.885 95.7802C215.833 95.3667 216.211 94.8907 216.608 95.0189C218.136 95.5126 219.976 94.55 220.441 93.0136C220.562 92.6144 221.167 92.5725 221.48 92.8484Z" fill="white"/>
<path fill-rule="evenodd" clip-rule="evenodd" d="M221.48 92.8484C221.773 93.1071 221.873 93.512 221.946 93.8997L222.392 96.3321C222.454 96.6704 222.318 97.194 221.995 97.0757C221.535 96.1007 221.29 95.0249 221.283 93.9469C221.108 93.7784 220.847 94.0291 220.737 94.2465L219.646 96.4192C219.454 96.8018 218.881 96.7173 218.502 96.5173L218.299 96.4099C217.971 96.2396 217.613 96.0889 217.302 96.2567C217.143 96.7325 217.849 96.9697 218.216 97.3122C218.635 97.7033 218.61 98.4054 218.317 98.8977C218.025 99.3901 217.53 99.7219 217.051 100.037C217.739 100.15 218.472 99.9497 219.005 99.5021C219.246 99.2998 219.467 99.0403 219.775 98.9759C220.252 98.8763 220.68 99.2893 220.927 99.7085C221.174 100.128 221.37 100.618 221.793 100.86C222.005 100.527 221.891 100.109 221.758 99.7235L221.695 99.5439C221.542 99.1133 221.473 98.5428 221.848 98.2815C221.989 98.1832 222.164 98.1545 222.337 98.1358L224.181 97.9512L223.118 97.1775C222.939 97.0472 222.738 96.8305 222.848 96.638C222.964 96.4341 223.273 96.5187 223.48 96.6289L226.065 98.004C225.186 98.6351 224.148 99.044 223.074 99.1826C222.544 99.2509 222.459 99.9756 222.515 100.506L222.668 101.95C222.716 102.399 222.008 102.552 221.654 102.27C221.301 101.988 221.167 101.515 220.888 101.159C220.438 100.583 219.642 100.369 218.914 100.435C218.187 100.502 217.505 100.807 216.839 101.108C216.409 101.302 215.937 100.788 215.97 100.318C216 99.9038 216.265 99.5563 216.536 99.2328L216.644 99.1046C216.947 98.7443 217.251 98.3173 217.2 97.8491C217.157 97.4592 216.878 97.1452 216.599 96.8647L216.435 96.7008C216.176 96.4362 215.931 96.1421 215.885 95.7802C215.833 95.3667 216.211 94.8907 216.608 95.0189C218.136 95.5126 219.976 94.55 220.441 93.0136C220.562 92.6144 221.167 92.5725 221.48 92.8484Z" fill="#FFB61D"/>
<path fill-rule="evenodd" clip-rule="evenodd" d="M119.749 49.2248C118.643 44.3102 121.657 36.1521 127.043 32.8719C132.429 29.5917 139.318 29.367 145.317 31.3149C145.125 25.5233 151.002 20.5534 156.78 21.0319C162.558 21.5104 167.352 26.6953 168.128 32.4379C168.733 36.9124 166.435 42.2422 161.991 43.0527C163.561 48.6626 164.435 54.5651 163.573 60.3265C162.711 66.0879 159.967 71.7159 155.338 75.2552C154.06 76.9735 155.025 79.5657 156.708 80.891C158.39 82.2163 160.568 82.6821 162.582 83.4135C171.018 86.4781 176.958 94.7973 178.342 103.662C179.727 112.526 176.961 121.72 171.964 129.172C168.541 134.277 163.884 138.81 158.058 140.773C149.88 143.529 140.914 140.846 132.973 137.469C129.946 136.181 126.864 134.718 124.727 132.218C122.436 129.538 118.107 130.985 114.985 132.624C117.061 133.485 119.137 134.346 121.213 135.207C121.659 135.392 122.143 135.612 122.349 136.048C122.785 136.966 121.712 137.85 120.804 138.307C119.829 138.798 118.853 139.289 117.877 139.78C111.888 142.794 105.651 145.874 98.9482 146.06C91.6199 146.264 84.6977 142.99 78.1024 139.79C77.3693 139.435 76.5923 139.039 76.1937 138.329C75.7951 137.618 76.0179 136.51 76.8057 136.302C84.2044 134.347 91.2093 130.914 97.2874 126.266C96.8224 123.373 96.932 120.388 97.6079 117.536C97.7057 117.124 97.8463 116.672 98.214 116.461C99.1181 115.941 99.9034 117.309 100.063 118.339C100.466 120.938 100.87 123.538 101.273 126.137C106.115 125.602 110.814 123.824 114.797 121.021C111.69 118.521 108.584 116.02 105.477 113.52C103.685 112.077 101.954 111.214 100.986 108.388C100.341 106.505 100.862 104.57 102.549 102.584C100.666 93.2029 99.8415 86.1312 100.077 81.369C100.14 80.0978 100.282 78.7255 101.138 77.7834C102.649 76.1203 105.616 76.8374 106.995 78.6113C108.374 80.3851 108.605 82.7656 108.784 85.0051C114.035 84.3638 119.287 83.7225 124.538 83.0812C126.46 82.8466 128.449 82.6174 130.299 83.1889C132.619 83.906 134.482 85.9369 134.996 88.3092C137.212 87.7105 139.626 86.9732 140.878 85.0498C142.129 83.1263 141.069 79.781 138.776 79.8802C131.602 80.1904 124.586 74.8697 122.953 67.8807C122.538 66.1032 122.376 64.1279 121.128 62.7957C119.15 60.6847 117.642 57.9631 117.652 55.0707C117.661 52.1782 118.874 51.8331 119.749 49.2248ZM76.9269 138.24C77.0884 138.481 77.3703 138.607 77.6373 138.722C80.3768 139.894 83.1163 141.065 85.8558 142.237C87.1023 142.77 88.3529 143.305 89.6564 143.678C93.2919 144.717 97.2093 144.464 100.824 145.574C101.262 145.708 101.733 145.569 102.17 145.429C105.322 144.414 108.438 143.284 111.508 142.042C114.72 140.742 117.903 139.309 120.754 137.342C121.014 137.163 121.283 136.964 121.402 136.672C121.52 136.38 121.411 135.974 121.108 135.888C119.183 135.341 117.286 134.697 115.427 133.958C114.83 133.72 114.157 133.381 114.03 132.751C112.392 132.817 110.96 133.849 109.752 134.956C108.544 136.064 107.409 137.314 105.921 138C104.432 138.686 102.435 138.626 101.404 137.353C101.293 137.217 101.183 137.061 101.013 137.016C100.844 136.972 100.627 137.141 100.706 137.297C100.91 137.701 100.471 138.213 100.018 138.185C99.5657 138.157 99.2119 137.745 99.1005 137.305C98.9891 136.866 98.3845 137.651 97.5081 137.781C96.6318 137.912 95.7021 137.35 95.411 136.514C95.1711 135.824 94.2305 135.812 93.5118 135.683C91.8776 135.39 90.6367 133.678 90.8665 132.035C86.17 133.6 81.5586 135.421 77.0595 137.486C76.7956 137.607 76.7654 137.999 76.9269 138.24Z" fill="white"/>
<path d="M142.862 70.6214C144.241 70.6214 145.359 69.504 145.359 68.1256C145.359 66.7473 144.241 65.6299 142.862 65.6299C141.483 65.6299 140.365 66.7473 140.365 68.1256C140.365 69.504 141.483 70.6214 142.862 70.6214Z" fill="#FFB61D"/>
<path d="M125.529 68.5664C126.26 68.5664 126.851 67.9748 126.851 67.2451C126.851 66.5154 126.26 65.9238 125.529 65.9238C124.799 65.9238 124.208 66.5154 124.208 67.2451C124.208 67.9748 124.799 68.5664 125.529 68.5664Z" fill="#FFB61D"/>
<path fill-rule="evenodd" clip-rule="evenodd" d="M154.786 78.1424C155.015 79.3287 155.695 80.4779 156.599 81.1907C158.282 82.516 162.064 83.8806 164.078 84.612C164.261 84.6785 163.228 85.2617 161.894 86.5511C158.284 90.0421 150.39 96.2934 142.677 93.1519C141.776 92.7847 141.022 92.362 140.408 91.9139C139.842 91.5011 145.035 92.0958 149.889 91.176C154.77 90.2512 159.31 87.8077 158.095 85.8706C156.953 84.0497 153.739 80.9657 153.489 79.1516C153.155 76.7348 154.589 77.1229 154.786 78.1424Z" fill="#E7EAEE"/>
<path fill-rule="evenodd" clip-rule="evenodd" d="M76.8276 137.553C76.8276 136.585 79.8819 135.802 85.1032 133.838C88.6943 132.488 95.694 128.582 99.1379 128.4C101.43 128.279 110.588 131.63 116.564 134.036C119.57 135.247 121.888 136.005 121.888 136.393C121.888 137.172 115.507 140.937 108.985 143.412C105.802 144.619 102.815 145.701 100.077 145.628C91.7263 145.405 76.8276 140.004 76.8276 137.553Z" fill="white"/>
<path fill-rule="evenodd" clip-rule="evenodd" d="M194.794 57.1425C182.82 62.2542 172.817 70.9887 163.286 79.8708L162.703 80.4148C162.147 80.9342 161.303 81.4773 160.703 81.0093L162.555 79.3242C172.245 70.5246 182.264 61.7991 194.253 56.6151C203.471 52.6293 203.373 53.48 194.794 57.1425ZM143.216 142.287L148.833 148.403C149.109 148.702 149.395 149.024 149.472 149.423C149.549 149.823 149.318 150.311 148.913 150.353L137.348 151.562C135.427 151.762 133.468 150.431 132.915 148.582C132.361 146.732 133.247 144.565 134.92 143.601C136.593 142.636 138.888 142.94 140.277 144.282C140.621 144.614 141.225 144.332 141.469 143.921C141.713 143.51 141.766 143.005 142.018 142.599C142.271 142.193 142.893 141.935 143.216 142.287ZM133.89 145.817C133.173 147.177 133.626 149.02 134.854 149.947C135.455 150.401 136.194 150.645 136.938 150.765C137.989 150.934 139.209 150.806 139.885 149.983C140.131 149.683 140.283 149.315 140.386 148.941C140.729 147.694 140.555 146.313 139.912 145.191C139.737 144.885 139.467 144.566 139.115 144.581C138.948 144.589 138.793 144.673 138.626 144.69C138.349 144.719 138.093 144.561 137.84 144.443C136.446 143.794 134.607 144.457 133.89 145.817ZM142.717 143.514C142.496 144.434 142.039 145.297 141.402 145.997C141.223 146.194 141.267 146.499 141.303 146.763C141.48 148.049 141.187 149.394 140.491 150.49C141.632 150.22 142.798 150.059 143.968 150.009C145.573 149.941 147.247 150.069 148.718 149.424C147.932 149.082 147.265 148.474 146.853 147.724C146.61 147.282 146.274 146.9 145.941 146.522L143.384 143.617C143.199 143.407 142.782 143.242 142.717 143.514ZM113.672 143.459C114.039 144.603 115.419 144.996 116.614 145.202L124.589 146.533C126.433 146.841 128.325 147.148 130.159 146.784C130.505 146.716 130.688 147.265 130.46 147.534C130.232 147.803 129.834 147.835 129.482 147.836C127.884 147.841 126.296 147.629 124.714 147.391L123.03 147.135C120.049 146.677 117.07 146.189 114.152 145.43C113.652 145.3 113.135 145.152 112.753 144.805C112.37 144.459 112.172 143.854 112.441 143.414C112.71 142.973 113.515 142.967 113.672 143.459ZM156.78 21.0319C162.558 21.5104 167.352 26.6953 168.128 32.4379C168.733 36.9124 166.435 42.2422 161.991 43.0527C163.561 48.6626 164.435 54.5651 163.573 60.3265C162.711 66.0879 159.967 71.7159 155.338 75.2552C154.06 76.9735 155.025 79.5657 156.708 80.891C158.39 82.2163 160.568 82.6821 162.582 83.4135C171.018 86.4781 176.958 94.7973 178.342 103.662C179.727 112.526 176.961 121.72 171.964 129.172C168.541 134.277 163.884 138.81 158.058 140.773C149.962 143.501 141.093 140.899 133.212 137.57L132.973 137.469C130.009 136.208 126.992 134.779 124.862 132.373L124.727 132.218C122.436 129.538 118.107 130.985 114.985 132.624L121.213 135.207C121.659 135.392 122.143 135.612 122.349 136.048C122.785 136.966 121.712 137.85 120.804 138.307L117.148 140.147C111.382 143.039 105.379 145.882 98.9482 146.06C91.7051 146.261 84.8587 143.066 78.3326 139.902L77.9185 139.701C77.2424 139.367 76.559 138.98 76.1937 138.329C75.7951 137.618 76.0179 136.51 76.8057 136.302C84.2044 134.347 91.2093 130.914 97.2874 126.266C96.8224 123.373 96.932 120.388 97.6079 117.536L97.6424 117.398C97.7397 117.026 97.8872 116.648 98.214 116.461C99.1181 115.941 99.9034 117.309 100.063 118.339L101.273 126.137C106.115 125.602 110.814 123.824 114.797 121.021L105.227 113.318C103.513 111.932 101.778 110.434 100.986 108.388C100.156 106.243 100.824 103.335 102.97 102.505C103.14 94.3786 102.711 86.2399 101.689 78.1762C100.276 86.2299 101.412 94.4869 102.549 102.584C100.599 95.838 99.7548 88.7741 100.059 81.7587L100.077 81.369C100.14 80.0978 100.282 78.7255 101.138 77.7834C102.649 76.1203 105.616 76.8374 106.995 78.6113C108.374 80.3851 108.605 82.7656 108.784 85.0051L124.899 83.0375C126.708 82.821 128.565 82.6531 130.299 83.1889C132.619 83.906 134.482 85.9369 134.996 88.3092L135.374 88.206C137.482 87.6232 139.697 86.8643 140.878 85.0498C142.116 83.1468 141.091 79.852 138.848 79.8782L138.776 79.8802C131.602 80.1904 124.586 74.8697 122.953 67.8807C122.538 66.1032 122.376 64.1279 121.128 62.7957C119.15 60.6847 117.642 57.9631 117.652 55.0707C117.661 52.1782 119.507 49.1953 122.317 48.5039C125.127 47.8124 128.452 50.1557 128.21 53.038C129.573 52.8993 130.968 53.0766 132.253 53.5522C131.52 51.5773 133.42 49.3974 135.507 49.1108C137.595 48.8241 139.63 49.8664 141.366 51.0603C143.102 52.2541 144.761 53.6597 146.78 54.2648L146.873 54.0495C147.29 53.076 147.674 52.0362 147.464 51.0071C147.238 49.9017 145.992 48.9457 144.983 49.4518C144.275 47.4238 143.148 45.5429 141.694 43.9614L137.652 45.866C137.131 45.0865 136.812 44.1736 136.734 43.2395C134.066 44.7638 131.169 45.8888 128.171 46.5653L128.478 44.2774L119.518 48.9287C118.196 42.7651 121.657 36.1521 127.043 32.8719C132.429 29.5917 139.318 29.367 145.317 31.3149C145.125 25.5233 151.002 20.5534 156.78 21.0319ZM200.857 121.491C195.695 122.736 190.685 124.605 185.969 127.045L185.628 127.223C183.016 128.599 180.451 130.247 178.813 132.694C179.919 132.502 181.1 132.79 181.993 133.47C182.557 133.899 183.029 134.543 182.995 135.25C182.978 135.617 182.825 135.967 182.619 136.272C181.816 137.462 180.115 137.945 178.806 137.355C177.496 136.765 176.732 135.171 177.091 133.782C171.536 135.677 166.761 139.756 164.016 144.94L163.924 145.115C163.789 145.376 163.624 145.669 163.337 145.733C162.942 145.823 162.591 145.382 162.609 144.979C162.627 144.575 162.886 144.227 163.137 143.91C166.373 139.801 170.156 135.891 174.997 133.908L175.362 133.762C176.504 133.309 177.699 132.864 178.437 131.899C180.226 129.556 182.801 127.949 185.416 126.588C187.756 125.37 190.177 124.307 192.657 123.408C195.146 122.505 197.691 121.769 200.241 121.056L208.881 118.652C206.544 120.293 203.634 120.821 200.857 121.491ZM90.8665 132.035C86.17 133.6 81.5586 135.421 77.0595 137.486C76.7956 137.607 76.7654 137.999 76.9269 138.24C77.0884 138.481 77.3703 138.607 77.6373 138.722L85.8558 142.237C87.1023 142.77 88.3529 143.305 89.6564 143.678C93.2919 144.717 97.2093 144.464 100.824 145.574C101.262 145.708 101.733 145.569 102.17 145.429C105.322 144.414 108.438 143.284 111.508 142.042C114.72 140.742 117.903 139.309 120.754 137.342C121.014 137.163 121.283 136.964 121.402 136.672C121.52 136.38 121.411 135.974 121.108 135.888C119.183 135.341 117.286 134.697 115.427 133.958L115.298 133.905C114.736 133.67 114.148 133.336 114.03 132.751C112.392 132.817 110.96 133.849 109.752 134.956C108.544 136.064 107.409 137.314 105.921 138C104.432 138.686 102.435 138.626 101.404 137.353L101.337 137.27C101.247 137.159 101.149 137.052 101.013 137.016C100.844 136.972 100.627 137.141 100.706 137.297C100.91 137.701 100.471 138.213 100.018 138.185C99.5657 138.157 99.2119 137.745 99.1005 137.305C99.0289 137.023 99.0352 136.731 99.0694 136.44L99.0781 136.368C98.8768 137.08 98.2461 137.671 97.5081 137.781C96.6318 137.912 95.7021 137.35 95.411 136.514C95.1711 135.824 94.2305 135.812 93.5118 135.683C91.8776 135.39 90.6367 133.678 90.8665 132.035ZM101.965 104.602C100.997 106.323 101.897 108.502 103.089 110.076C106.828 115.013 113.091 117.382 117.365 121.864C118.438 122.991 119.374 124.239 120.298 125.492L123.202 129.434C123.736 130.158 124.272 130.885 124.895 131.535C126.519 133.229 128.657 134.322 130.772 135.339C135.064 137.403 139.479 139.3 144.138 140.285C148.798 141.27 153.749 141.304 158.232 139.697C162.428 138.193 166.043 135.309 168.852 131.85C171.595 128.473 173.607 124.558 175.221 120.517L175.338 120.221C175.57 119.632 175.798 119.015 175.75 118.384C175.699 117.716 175.343 117.108 174.928 116.583C173.343 114.579 170.695 113.446 168.16 113.759C165.663 114.068 163.378 115.799 162.463 118.138L162.421 118.25C160.434 123.634 155.486 127.683 149.927 129.12C144.368 130.557 138.322 129.528 133.249 126.841C128.175 124.155 124.035 119.903 120.948 115.065L120.779 114.798C120.222 113.903 119.715 112.962 119.518 111.93C119.303 110.794 119.522 109.517 120.342 108.703C120.884 108.165 121.655 107.849 122.05 107.195C122.444 106.541 121.981 105.386 121.254 105.62L120.769 105.774C117.427 106.813 113.55 107.619 110.861 105.456L110.603 105.25C109.348 104.253 108.008 103.302 106.449 102.96C104.783 102.593 102.801 103.116 101.965 104.602ZM115.287 122.05C111.233 124.61 106.659 126.342 101.926 127.108C101.301 127.209 101.133 128.019 101.123 128.652C101.092 130.662 101.189 132.675 101.415 134.673C101.927 134.432 102.137 133.829 102.487 133.383C102.836 132.938 103.634 132.694 103.904 133.191C104.093 133.539 103.841 133.975 103.519 134.205C103.197 134.436 102.802 134.561 102.515 134.833C101.802 135.512 102.175 136.846 103.044 137.308C103.913 137.77 105.013 137.529 105.847 137.005C106.68 136.481 107.324 135.712 108.031 135.027C109.542 133.561 111.391 132.444 113.393 131.789C115.934 130.957 118.763 130.834 120.998 129.367C121.149 129.269 121.305 129.153 121.362 128.982C121.439 128.749 121.308 128.506 121.169 128.299L118.494 124.417C118.068 123.799 117.578 123.135 116.848 122.958C116.514 122.877 116.158 122.908 115.831 122.805C115.503 122.702 115.195 122.381 115.287 122.05ZM96.6137 127.689C95.5709 128.175 94.9537 129.32 94.8164 130.462C94.679 131.604 94.9487 132.754 95.2691 133.858C95.4657 134.537 95.6838 135.213 96.009 135.84C96.2164 136.239 96.4909 136.638 96.9065 136.812C97.3221 136.985 97.8988 136.829 98.0338 136.4C98.0895 136.223 98.0645 136.031 98.0323 135.849C97.9113 135.162 97.6942 134.493 97.3894 133.866L97.2615 133.612C97.0782 133.245 96.9055 132.813 97.1412 132.493C97.3663 132.187 97.9194 132.061 97.8665 131.685L97.3501 128.016C97.335 127.909 97.3173 127.796 97.2476 127.713C97.1009 127.538 96.8203 127.592 96.6137 127.689ZM179.289 133.348C178.945 133.347 178.583 133.394 178.306 133.599C178.145 133.719 178.022 133.887 177.936 134.069C177.573 134.84 177.908 135.829 178.597 136.331C179.285 136.832 180.239 136.879 181.036 136.579C181.646 136.349 182.232 135.829 182.212 135.178C182.196 134.664 181.806 134.236 181.376 133.954C180.761 133.552 180.024 133.352 179.289 133.348ZM98.5703 117.291C98.4821 117.356 98.4385 117.464 98.4013 117.568C97.8591 119.071 97.7927 120.701 97.8076 122.3C97.8451 126.308 98.3603 130.311 99.3387 134.197L99.3873 134.386C99.5873 135.145 99.8607 135.924 100.48 136.393C100.595 130.234 100.195 124.065 99.2861 117.972C99.2271 117.577 98.8913 117.052 98.5703 117.291ZM93.687 130.53C93.5575 130.566 93.4744 130.689 93.4098 130.807C92.881 131.772 92.8453 132.99 93.3167 133.984C93.5281 134.429 93.8905 134.862 94.3808 134.917C94.5807 134.668 94.4893 134.31 94.3773 134.005L94.2806 133.747C93.9208 132.772 93.6254 131.717 93.9426 130.737C93.984 130.609 93.8164 130.493 93.687 130.53ZM91.9229 131.866C91.5521 132.69 91.7173 133.727 92.3259 134.395C92.5771 134.138 92.4666 133.718 92.3808 133.369C92.2466 132.823 92.2162 132.252 92.292 131.695C92.1984 131.558 91.991 131.714 91.9229 131.866ZM99.7392 102.496C100.301 102.98 100.659 104.025 99.9911 104.348C99.5634 104.555 99.0788 104.252 98.6749 104.002C96.5762 102.7 93.8929 102.604 91.5136 103.267C89.1343 103.929 87.0072 105.277 85.0109 106.731C83.0228 108.178 81.1059 109.766 79.611 111.718C78.1161 113.67 77.0587 116.022 76.9719 118.479C76.868 121.423 78.1404 124.237 79.6118 126.79C80.5496 128.416 81.6071 130.02 83.0629 131.201L83.3621 131.438C83.7751 131.769 84.1991 132.18 84.0938 132.678C82.6669 132.614 81.6312 131.338 80.8454 130.146C79.728 128.451 78.7095 126.69 77.7966 124.877C77.0376 123.369 76.3438 121.798 76.1132 120.125C75.6795 116.98 76.957 113.783 78.9426 111.305C80.9282 108.827 83.5707 106.967 86.2434 105.252C88.2736 103.949 90.363 102.699 92.6419 101.908C94.9922 101.091 97.854 100.873 99.7392 102.496ZM160.054 88.6446C156.674 91.7975 152.182 93.7344 147.568 94.0278C145.529 94.1575 143.423 93.9627 141.578 93.0853C139.733 92.2079 138.179 90.5719 137.75 88.5751L137.597 88.6223C136.262 89.0447 134.733 89.8089 134.746 91.1845C134.803 97.0185 134.667 102.854 134.339 108.679C134.276 109.797 133.85 111.265 132.73 111.232C128.753 111.115 124.749 112.033 121.22 113.871C125.192 120.097 130.841 125.541 137.868 127.822C144.895 130.102 153.37 128.677 158.294 123.172C159.873 121.407 161.035 119.321 162.153 117.231L162.411 116.749C162.649 116.303 162.891 115.773 162.679 115.314C162.544 115.021 162.835 114.717 163.103 114.536C167.032 111.878 172.883 112.599 176.048 116.132C175.798 115.642 176.026 114.966 176.522 114.727C176.917 115.361 177.001 116.18 176.742 116.88C176.913 117.122 177.227 116.733 177.254 116.438C177.676 111.846 177.643 107.212 177.155 102.626C176.98 100.972 176.741 99.3086 176.149 97.7545C175.63 96.3917 174.85 95.1425 173.995 93.9608C172.028 91.242 169.637 88.8304 166.935 86.8399L166.739 86.6972C166.311 86.3906 165.86 86.1081 165.353 85.9704C163.35 85.4251 161.572 87.2283 160.054 88.6446ZM132.752 86.0028C130.518 86.7543 128.099 86.6098 125.747 86.7722C122.434 87.0011 119.164 87.8624 116.168 89.2962C114.878 89.9137 113.629 90.6395 112.265 91.069C109.366 91.9812 106.044 91.4178 103.609 89.6013C103.084 93.6071 103.239 97.7011 104.065 101.656C104.118 101.91 104.285 102.235 104.533 102.159C106.18 101.653 107.952 102.368 109.416 103.276C110.881 104.183 112.257 105.314 113.92 105.763C115.871 106.29 117.939 105.803 119.87 105.191L120.015 105.145C121.005 104.827 122.285 104.562 122.92 105.385C123.456 106.08 123.118 107.117 122.551 107.785C121.984 108.454 121.215 108.951 120.753 109.696C120.185 110.611 120.182 111.846 120.745 112.763C124.434 111.284 128.382 110.455 132.354 110.324C133.15 110.298 133.43 109.267 133.479 108.472C133.907 101.505 134.039 94.5202 133.873 87.5422C133.855 86.7984 133.458 85.7655 132.752 86.0028ZM192.47 104.842L192.628 104.921C193.607 105.418 194.648 106.08 194.793 107.151C194.841 107.503 194.781 107.861 194.697 108.207C194.581 108.686 194.404 109.177 194.032 109.5C193.637 109.842 193.082 109.939 192.56 109.919C191.532 109.879 190.503 109.4 189.908 108.562C189.312 107.723 189.216 106.523 189.772 105.658C190.327 104.792 191.549 104.385 192.47 104.842ZM190.946 106.04C190.336 106.294 190.117 107.118 190.371 107.727C190.625 108.336 191.229 108.737 191.857 108.942C192.499 109.152 193.326 109.135 193.708 108.579C193.835 108.393 193.896 108.17 193.931 107.948C194.007 107.465 193.961 106.93 193.65 106.553C193.264 106.085 192.605 105.991 191.99 105.956L191.838 105.949C191.536 105.935 191.224 105.924 190.946 106.04ZM114.01 93.4474C114.087 93.7398 114.028 94.0484 113.975 94.3462C113.604 96.4434 113.577 98.601 113.895 100.707L113.954 101.08C113.993 101.343 114.009 101.622 113.857 101.834C113.682 102.079 113.192 102.054 113.168 101.754C112.959 99.2026 112.825 96.6449 112.767 94.0854C112.756 93.5966 112.883 92.9464 113.371 92.9089C113.673 92.8856 113.933 93.155 114.01 93.4474ZM96.8432 88.3342C97.204 88.4426 97.5505 88.6896 97.6551 89.0513C97.7597 89.4131 97.5217 89.8703 97.1457 89.894C96.7953 89.916 96.5279 89.5971 96.2059 89.4571C95.6279 89.2058 94.9793 89.5567 94.4479 89.8956L94.1774 90.0702C93.6672 90.406 93.173 90.7827 92.8929 91.3182C92.6063 91.866 92.5823 92.5098 92.5911 93.1279C92.5973 93.5576 92.6174 93.9935 92.7504 94.4022C93.0387 95.2888 93.8615 95.953 94.7742 96.1452C95.6869 96.3375 96.6631 96.0884 97.4352 95.5653L97.5863 95.4626C97.7226 95.3728 97.8656 95.2946 98.0259 95.2868C98.2464 95.2763 98.4878 95.484 98.4129 95.6916C98.3904 95.7538 98.3442 95.8042 98.298 95.8516C97.0361 97.1473 94.8569 97.4247 93.3103 96.4864C93.0344 96.3191 92.7772 96.117 92.5687 95.8708C91.9419 95.1307 91.825 94.0935 91.8078 93.1241C91.7984 92.5994 91.8114 92.0669 91.9606 91.5638C92.2829 90.4768 93.1939 89.6694 94.1407 89.0451C94.9446 88.5149 95.921 88.0569 96.8432 88.3342ZM89.5419 86.104L92.6881 89.8384C92.515 90.0256 92.2116 90.0378 91.9778 89.9362C91.7699 89.8458 91.6042 89.6843 91.448 89.5184L89.602 87.534C89.3503 89.5481 88.7406 91.5169 87.81 93.3209C87.7194 93.4965 87.976 93.6448 88.1726 93.6649C88.6528 93.7142 89.1383 93.6594 89.6118 93.5656L89.8558 93.5164C90.2381 93.4405 90.6302 93.3809 90.9866 93.522C91.4194 93.6934 91.6865 94.323 91.3394 94.6331C91.1255 94.8243 90.8014 94.8005 90.5166 94.7653L87.4525 94.3865L87.3584 94.373C87.0559 94.3235 86.7234 94.2051 86.6791 93.9137C86.6524 93.738 86.75 93.5702 86.8413 93.4178C87.9319 91.5985 88.6585 89.5624 88.967 87.4641L89.0135 87.1313C89.0734 86.7229 89.1795 86.2797 89.5419 86.104ZM196.733 91.9712C197.112 92.2397 197.471 92.7669 197.176 93.127C196.992 93.3523 196.638 93.3579 196.373 93.2367C196.108 93.1154 195.903 92.8981 195.674 92.7177C194.738 91.978 193.332 91.9 192.32 92.5317C192.176 92.6217 192.032 92.7334 191.974 92.8928C191.916 93.0522 191.98 93.2664 192.143 93.3145C193.435 92.7673 194.976 92.8438 196.207 93.5164C196.385 93.6136 196.572 93.7429 196.616 93.9409C196.66 94.1388 196.447 94.3763 196.27 94.2772C195.466 93.8276 194.507 93.6621 193.599 93.8165C193.176 93.8885 192.762 94.0276 192.333 94.0412C191.904 94.0548 191.434 93.9117 191.207 93.548C190.996 93.2123 191.046 92.7593 191.251 92.4205C191.456 92.0816 191.792 91.8415 192.144 91.6587C193.574 90.9146 195.416 91.0401 196.733 91.9712ZM153.868 73.816C150.8 76.3935 147.195 78.329 143.352 79.464L143.095 79.5385C142.596 79.6808 141.969 79.9966 142.073 80.5046L142.138 80.8198C142.33 81.7674 142.492 82.7325 142.356 83.6861C142.208 84.7145 141.641 85.7438 140.702 86.176L140.616 86.2136C138.945 86.9013 138.71 89.3967 139.806 90.8332C140.902 92.2697 142.802 92.826 144.598 93.0335C149.868 93.6426 155.367 91.8767 159.295 88.3138C160.72 87.0215 161.995 85.4746 163.759 84.7069L159.348 83.0929C158.157 82.6575 156.952 82.2141 155.916 81.4844C154.88 80.7547 154.016 79.6923 153.804 78.4434C153.545 76.9137 154.279 75.3123 153.868 73.816ZM102.98 77.9519C102.869 78.0011 102.756 78.0664 102.703 78.1752C102.649 78.2841 102.667 78.4128 102.686 78.5325L103.697 84.9008C103.995 86.7774 104.413 88.8571 105.962 89.9593C107.658 91.1666 109.987 90.6936 111.963 90.0043L112.068 89.9672C115.745 88.6619 119.284 86.8448 123.138 86.2335C125.904 85.7946 128.806 85.9825 131.422 84.9814C130.465 83.5377 128.392 83.5453 126.658 83.7347L112.489 85.3442C111.391 85.4689 110.238 85.6144 109.347 86.2666C108.957 86.5519 108.587 86.944 108.104 86.964C107.634 86.9833 107.226 86.2993 107.594 86.0477L107.627 86.0278C108.031 85.8056 108.003 85.2261 107.921 84.7728L107.492 82.4243C107.276 81.2594 107.011 80.0739 106.314 79.1228C105.561 78.0957 104.144 77.4348 102.98 77.9519ZM200.797 87.4701C201.138 87.8677 201.153 88.4779 200.925 88.95C200.698 89.4221 200.266 89.7692 199.8 90.0085C199.237 90.2971 198.617 90.4477 197.996 90.5763L197.685 90.6392C197.564 90.6637 197.435 90.6877 197.318 90.6486C197.22 90.616 197.141 90.5427 197.076 90.462C196.756 90.0604 196.767 89.4679 196.984 89.0022C197.201 88.5365 197.589 88.1745 197.987 87.8504C198.395 87.5192 198.838 87.2072 199.349 87.086C199.86 86.9649 200.455 87.0718 200.797 87.4701ZM199.121 88.1689L198.958 88.2788C198.713 88.4463 198.478 88.6291 198.313 88.8733C198.112 89.1717 198.043 89.5881 198.241 89.8882L199.555 89.1573C199.769 89.0382 199.991 88.9124 200.13 88.7107C200.269 88.5091 200.296 88.2081 200.125 88.0335C199.867 87.7714 199.428 87.9654 199.121 88.1689ZM178.157 73.7928C178.249 73.8299 178.311 73.913 178.365 73.9978L180.29 77.141C180.634 77.7028 181.417 77.7654 182.074 77.7191C183.334 77.6304 184.582 77.3734 185.774 76.9571C185.974 76.8873 186.164 77.1416 186.121 77.3489C186.077 77.5562 185.899 77.7038 185.732 77.834L182.84 80.087C182.485 80.0619 182.586 79.4809 182.874 79.2717L182.959 79.2123C183.237 79.0251 183.573 78.8402 183.556 78.5188L181.885 79.0406C181.566 79.1402 181.211 79.2382 180.907 79.0981C180.706 79.005 180.564 78.8224 180.437 78.6385L178.313 75.5411L178.277 78.2535C178.274 78.4759 178.264 78.7172 178.123 78.889C178.023 79.0111 177.873 79.0766 177.723 79.1318L174.793 80.1825C175.576 80.9644 177.04 80.1417 177.976 80.7309C178.618 81.1346 178.727 82.0341 178.589 82.779C178.45 83.5239 178.133 84.2486 178.174 85.0051C178.709 84.6174 179.102 84.0385 179.264 83.3986C179.329 83.1407 179.362 82.8662 179.505 82.6422C179.901 82.0245 180.846 82.1502 181.501 82.4805C182.157 82.8108 182.836 83.2864 183.553 83.1294L182.513 81.4674C182.418 81.3158 182.32 81.1516 182.328 80.973C182.337 80.7943 182.507 80.6137 182.678 80.6656C182.753 80.6883 182.809 80.7477 182.858 80.8098L185.178 83.8157C184.364 84.3527 183.288 84.0144 182.348 83.7552L182.208 83.7188C181.29 83.4917 180.17 83.4692 179.663 84.2466C179.306 84.7945 178.887 85.302 178.416 85.7564C178.218 85.9478 177.992 86.1386 177.718 86.1698C177.444 86.2011 177.129 85.9936 177.154 85.7192L177.423 82.6796C177.441 82.4828 177.454 82.2686 177.344 82.1043C177.229 81.9312 177.011 81.8639 176.81 81.8085L174.276 81.1089C173.725 80.9568 173.721 80.0994 174.134 79.7047C174.547 79.31 175.156 79.2272 175.707 79.0745C176.258 78.9218 176.854 78.5976 176.953 78.0349L177.596 74.3933C177.651 74.0819 177.864 73.6742 178.157 73.7928ZM109.965 22.4504L109.497 22.8306C106.378 25.3709 103.305 28.0341 101.017 31.3363C98.6156 34.8036 97.1412 39.1032 97.8562 43.2595C98.8982 49.3161 104.318 54.1396 104.55 60.2808C104.581 61.0965 105.412 61.6042 106.107 62.0325C108.851 63.7228 110.885 66.4055 112.227 69.3349C113.527 72.1726 114.221 75.2476 114.725 78.3294L114.774 78.6276C114.849 79.0975 114.904 79.6324 114.6 79.9993C114.297 80.3661 113.517 80.2376 113.547 79.7627C113.903 74.179 111.873 68.4826 108.065 64.3814C107.076 63.316 105.927 62.3285 104.534 61.9113C104.445 64.062 103.721 66.2537 102.187 67.7649C100.653 69.2761 98.2339 69.9665 96.2485 69.1326C94.263 68.2986 93.0484 65.7807 93.9419 63.8221C94.6905 62.1815 96.5495 61.3526 98.3194 61.0033C100.056 60.6606 101.856 60.6427 103.599 60.9509C103.834 60.9924 103.936 60.6647 103.932 60.4267C103.805 54.0433 97.902 49.0457 97.1271 42.7083C96.7036 39.2448 97.8859 35.7584 99.6017 32.7197C101.855 28.7292 105.06 25.2801 108.876 22.7402L108.976 22.6754C109.282 22.4831 109.638 22.3191 109.965 22.4504ZM129.403 54.9622C128.548 55.5114 128.57 56.7303 128.5 57.743C128.403 59.1322 127.925 60.5227 126.993 61.5578C126.061 62.593 124.645 63.2289 123.263 63.0551C122.905 63.0101 122.796 63.5273 122.843 63.8846C123.647 70.0069 127.362 76.0177 133.138 78.2099C136.669 79.5501 140.657 79.372 144.257 78.2297C147.771 77.1146 150.951 75.1313 153.858 72.861L154.07 72.6944C154.492 72.3616 154.915 72.0149 155.208 71.565C155.506 71.1086 155.652 70.5688 155.723 70.029C156.104 67.1372 154.171 64.1112 151.385 63.2409C151.058 63.1384 151.133 62.6069 151.421 62.4193C151.709 62.2317 152.079 62.2444 152.408 62.1441C153.297 61.8723 153.707 60.8594 153.91 59.9518C154.189 58.7048 154.267 57.2828 153.494 56.2651C152.449 54.8899 150.417 54.8916 148.695 55.0234L145.9 55.2373C144.935 55.3111 143.693 55.651 143.648 56.617C143.55 58.6976 142.633 60.7702 141.013 62.0803C139.393 63.3904 137.06 63.8434 135.137 63.0414C133.244 62.2522 131.907 60.1927 132.125 58.1595L132.137 58.0611C132.251 57.201 132.188 56.267 131.684 55.5607C131.18 54.8544 130.133 54.4928 129.403 54.9622ZM152.49 22.4491C151.244 22.8033 150.047 23.3745 149.063 24.2172C147.687 25.395 146.773 27.0969 146.551 28.8933C146.472 29.5298 146.598 30.3507 147.217 30.5217C148.728 30.9394 150.08 31.908 150.96 33.204C149.532 32.3545 147.966 31.7364 146.343 31.3811L153.205 35.2623C153.603 35.4873 154.016 35.7262 154.266 36.1085C154.516 36.4909 154.543 37.0615 154.199 37.3626L153.719 36.9895C152.517 36.0594 151.288 35.1578 149.942 34.454C148.919 33.9187 147.839 33.5035 146.753 33.1079L146.16 32.8935C144.15 32.1687 142.122 31.4392 140.005 31.1496C138.04 30.8808 136.022 31.0002 134.103 31.4988L133.724 31.5958C131.131 32.2517 128.427 32.788 126.283 34.3727C125.007 35.3154 124.009 36.5774 123.06 37.8483L122.837 38.1516C120.953 40.7372 119.231 43.9249 120.333 46.8914C125.394 46.2683 129.337 42.3543 133.922 40.1233C134.272 39.9527 134.85 39.9005 134.904 40.2864L129.773 43.3166C129.916 44.0991 129.781 44.9291 129.399 45.6265C133.147 44.5679 136.651 42.6564 139.571 40.0797L139.757 39.9143C140.22 39.4976 141.112 39.1528 141.309 39.7436L141.058 39.8837C140.138 40.4014 139.222 40.9676 138.587 41.8058C137.895 42.7202 137.619 44.0495 138.233 45.0184L144.709 41.2069C144.972 41.0521 145.259 40.8917 145.563 40.9235C145.867 40.9554 146.151 41.2823 146.02 41.5578L145.8 41.6037C145.101 41.7521 144.392 41.9381 143.848 42.3933C143.246 42.8963 142.934 43.8394 143.381 44.4836C144.183 45.6391 144.834 46.8993 145.312 48.222C145.322 47.6436 146.111 47.3478 146.631 47.6017C147.151 47.8557 147.426 48.4289 147.615 48.9758C148.154 50.5405 148.296 52.24 148.025 53.8725C149.654 54.4472 151.564 53.7683 153.13 54.4953C154.584 55.1702 155.296 56.9206 155.195 58.5198C155.094 60.119 154.338 61.5977 153.53 62.982C155.787 64.7293 156.992 67.739 156.565 70.5599C156.959 70.4957 157.291 70.1564 157.347 69.7619L158.242 70.3262C156.842 71.117 155.846 72.5845 155.629 74.1768C161.778 68.4249 163.82 59.3088 162.933 50.9376L162.898 50.6254C162.546 47.6025 161.71 44.4514 159.435 42.4491C160.655 41.7464 162.219 42.0228 163.524 41.4951C164.756 40.9965 165.604 39.8408 166.176 38.6409C168.089 34.6294 167.43 29.5254 164.561 26.1307C161.692 22.7359 156.767 21.2339 152.49 22.4491ZM132.387 72.7584C132.581 72.7904 132.801 72.8559 132.877 73.0372C132.998 73.3266 132.658 73.5912 132.364 73.7007C131.937 73.8598 131.488 73.9616 131.034 74.0027C130.653 74.0371 130.173 73.9636 130.055 73.5999C129.978 73.3608 130.112 73.0921 130.316 72.9447C130.519 72.7972 130.777 72.7474 131.027 72.7203C131.479 72.6714 131.938 72.6842 132.387 72.7584ZM125.43 68.61C126.768 70.182 128.862 71.0145 130.927 71.0308C132.992 71.0471 135.018 70.3008 136.733 69.1501L136.877 69.0532C137.095 68.9086 137.321 68.7728 137.576 68.7283C137.888 68.674 138.259 68.805 138.365 69.1034C136.572 70.6257 134.324 71.631 131.981 71.8435C129.638 72.056 127.211 71.4552 125.299 70.0847C124.954 69.8374 124.598 69.5121 124.584 69.0881C124.569 68.6641 125.155 68.2869 125.43 68.61ZM97.378 61.9513C96.4474 62.248 95.5108 62.6828 94.9237 63.4631C94.0515 64.6223 94.2041 66.381 95.146 67.4842C96.088 68.5874 97.6808 69.0278 99.1019 68.7346C100.523 68.4414 101.757 67.4831 102.555 66.2722C103.354 65.0612 103.745 63.6156 103.863 62.1701C103.883 61.9278 103.839 61.607 103.6 61.5625C101.536 61.1787 99.3779 61.3136 97.378 61.9513ZM130.354 56.3031C130.393 56.6365 130.264 56.9636 130.146 57.2776C129.475 59.0519 129.067 60.9249 128.939 62.8171C128.918 63.1236 128.906 63.4415 129.019 63.7274C129.125 63.9974 129.372 64.2323 129.657 64.2484L129.708 64.249C129.968 64.2398 130.092 64.6274 129.928 64.8298C129.765 65.0322 129.457 65.0548 129.208 64.9806C128.696 64.8282 128.328 64.3515 128.18 63.8383C128.031 63.3251 128.069 62.7772 128.143 62.2481C128.396 60.4543 129.051 58.7152 129.083 56.904C129.092 56.3929 129.197 55.704 129.707 55.6633C130.041 55.6366 130.316 55.9697 130.354 56.3031ZM136.723 50.2493C135.658 50.4681 134.846 51.3408 134.294 52.2763C133.163 54.1928 132.841 56.5691 133.421 58.7173C133.681 59.6819 134.126 60.6141 134.824 61.3291C135.522 62.0441 136.492 62.524 137.491 62.5075C138.189 62.4959 138.866 62.2485 139.472 61.9029C141.495 60.749 142.781 58.4104 142.67 56.0844C142.56 53.7585 141.058 51.5523 138.934 50.5953C138.243 50.2837 137.466 50.0964 136.723 50.2493ZM122.034 49.2957C120.132 49.9998 118.905 51.9737 118.643 53.9837C118.381 55.9936 118.945 58.0269 119.749 59.8877C119.966 60.3888 120.212 60.8983 120.628 61.2523C121.044 61.6063 121.673 61.765 122.145 61.491C122.365 61.3635 122.571 61.6617 122.738 61.8534C123.07 62.2354 123.655 62.268 124.152 62.1688C125.788 61.8419 127.046 60.4126 127.555 58.8242C128.047 57.2887 127.942 55.6266 127.651 54.0377L127.62 53.8736C127.314 52.2712 126.621 50.4703 125.06 49.9932C124.242 49.743 123.254 49.8892 122.622 49.3131C122.469 49.174 122.228 49.2239 122.034 49.2957ZM152.254 56.09C152.897 56.8023 152.634 57.9086 152.312 58.8226L152.286 58.8963C152.157 59.2547 152.024 59.6216 151.778 59.9123C151.531 60.203 151.145 60.406 150.772 60.3283C150.399 60.2507 150.108 59.8184 150.265 59.4713C150.459 59.0404 151.12 59.0184 151.359 58.6103L150.714 58.5495C150.28 58.5085 149.813 58.4534 149.491 58.1591C149.17 57.8648 149.129 57.242 149.52 57.0491C149.791 56.9154 150.118 57.0464 150.368 57.2149C150.619 57.3834 150.859 57.5967 151.158 57.6426C151.457 57.6885 151.82 57.4539 151.759 57.1582C151.673 56.7465 151.884 56.2908 152.254 56.09ZM137.541 58.8709C137.592 59.1541 137.611 59.4545 137.505 59.722C137.399 59.9895 137.14 60.2133 136.853 60.2014C136.407 60.1828 136.168 59.67 136.091 59.2312C135.995 58.689 136.145 57.9429 136.694 57.9025C137.164 57.868 137.458 58.4071 137.541 58.8709ZM123.815 57.72C124.037 58.0432 124.006 58.4751 123.918 58.857C123.805 59.3458 123.521 59.8911 123.022 59.9421C122.571 59.9882 122.187 59.585 122.039 59.1568C121.859 58.6341 121.947 57.9955 122.355 57.6227C122.763 57.2499 123.503 57.2642 123.815 57.72ZM124.231 52.204C124.43 52.2955 124.571 52.5465 124.47 52.7411L124.277 52.7916C123.18 53.0842 122.01 53.4915 121.487 54.4829C121.361 54.7205 121.28 54.9827 121.123 55.2012C120.967 55.4198 120.703 55.5936 120.44 55.5382C120.14 55.4751 119.967 55.1302 119.999 54.8257C120.031 54.5211 120.216 54.2556 120.415 54.0224C121.222 53.074 122.36 52.4124 123.584 52.1797C123.8 52.1387 124.032 52.1125 124.231 52.204ZM138.252 52.7516C138.58 53.0158 138.829 53.3679 139.161 53.6278C139.441 53.8473 139.795 54.0209 139.922 54.3532C140.05 54.6854 139.667 55.1547 139.389 54.9322C138.664 54.3513 137.859 53.8702 137.004 53.5064C136.616 53.3415 136.704 52.6895 137.082 52.5039C137.46 52.3183 137.924 52.4874 138.252 52.7516ZM134.189 50.668C133.474 50.9035 132.966 51.6553 133.015 52.406C133.288 52.2662 133.496 52.0049 133.572 51.7073L133.561 51.6772C133.878 51.4266 134.104 51.0632 134.189 50.668Z" fill="#00160A"/>
<path fill-rule="evenodd" clip-rule="evenodd" d="M93.911 140.64C94.1986 140.642 94.463 140.775 94.7143 140.922L94.8501 141.003C96.3901 141.924 98.0152 142.704 99.6979 143.328C99.9292 143.414 99.8573 143.802 99.6319 143.902C99.4065 144.002 99.1464 143.913 98.9165 143.823L93.947 141.891C93.629 141.767 93.2598 141.578 93.232 141.239C93.2042 140.9 93.5711 140.637 93.911 140.64Z" fill="#E7EAEE"/>
<path fill-rule="evenodd" clip-rule="evenodd" d="M85.9887 135.228L101.362 140.678L101.459 140.714C101.865 140.873 102.304 141.145 102.261 141.564C102.226 141.906 101.847 142.126 101.504 142.115C101.213 142.105 100.945 141.976 100.688 141.834L100.549 141.755C98.4053 140.54 96.1563 139.538 93.8498 138.672C91.237 137.691 88.5504 136.885 85.8595 136.142C85.448 136.029 84.9265 135.661 85.1625 135.306C85.328 135.056 85.7066 135.128 85.9887 135.228Z" fill="#E7EAEE"/>
</svg>
